<?xml version="1.0" encoding="UTF-8"?>
<svg width="38px" height="37px" viewBox="0 0 38 37" version="1.1" xmlns="http://www.w3.org/2000/svg" xmlns:xlink="http://www.w3.org/1999/xlink">
    <!-- Generator: Sketch 59.1 (86144) - https://sketch.com -->
    <title>默认头像36@2x</title>
    <desc>Created with Sketch.</desc>
    <g id="蓝色" stroke="none" stroke-width="1" fill="none" fill-rule="evenodd">
        <g id="CCHR首页-蓝色" transform="translate(-1198.000000, -7.000000)" fill-rule="nonzero">
            <g id="顶部">
                <g id="默认头像36" transform="translate(1199.000000, 8.000000)">
                    <path d="M-0.5,17.5135135 C-0.5,7.56187364 7.78581457,-0.5 18,-0.5 C28.2141854,-0.5 36.5,7.56187364 36.5,17.5135135 C36.5,27.4651534 28.2141854,35.527027 18,35.527027 C7.78581457,35.527027 -0.5,27.4651534 -0.5,17.5135135 Z" id="路径" stroke-opacity="0.304059222" stroke="#E9E9E9" fill="#FFFFFF"></path>
                    <g id="编组-2" transform="translate(2.808000, 3.823277)">
                        <path d="M15.192,31.2037496 C21.7454063,31.2037496 27.47925,27.795182 30.6272813,22.7017597 L30.6261563,22.677405 C29.7182813,21.3332428 23.4812813,19.2975705 21.034125,19.2975705 C16.1791875,27.5551921 9.62634375,20.7186279 9.74475,19.3744658 C6.354,19.147611 2.26771875,21.5302698 2.84217094e-14,23.0785739 C3.1944375,27.9615604 8.80228125,31.2037496 15.192,31.2037496 Z" id="路径" fill="#A7C5FF"></path>
                        <path d="M9.822375,19.7474489 C10.5707812,21.6334354 16.531875,26.9550806 21.034125,19.2975705 C21.0698437,19.2975705 21.1089375,19.299486 21.1460625,19.300307 C20.2995,18.5193138 19.647,17.2211246 19.8981562,14.8622732 C17.6371875,18.3053205 13.332375,18.5094624 11.1203437,14.9523036 C11.2815,15.9916212 11.2024687,17.6244827 9.822375,19.7474489 L9.822375,19.7474489 Z" id="路径" fill="#EDE7E6"></path>
                        <path d="M11.0030625,15.1304489 C11.2030312,15.8216854 16.371,20.5169489 21.0540937,19.3648881 C19.6835625,17.7229962 20.169,15.1594556 20.2545,13.6327698 C20.7396562,12.5956415 11.1456562,14.2088002 11.0030625,15.1304489 Z" id="路径" fill="#E3DCDB"></path>
                        <path d="M21.3615,9.56443537 C21.3325313,11.1173915 21.0467813,12.4544388 20.5821563,13.5659996 C23.1764063,12.8449354 23.7884063,7.16864145 21.3615,9.56443537 Z" id="路径" fill="#EFE7E6"></path>
                        <path d="M20.0325938,5.85512794 C14.9304375,6.96887794 12.826125,4.70279348 11.7838125,4.01155699 C10.1162813,5.30783064 10.5330938,8.3034624 9.99703125,8.8507597 C9.90532158,8.73829624 9.82087784,8.62040047 9.7441875,8.49775294 C9.277875,20.8562732 21.477375,20.019182 21.3643125,9.15259416 C20.2632188,7.51042862 20.460375,7.47293875 20.0325938,5.85512794 Z" id="路径" fill="#F7EDEB"></path>
                        <path d="M11.7838125,4.01183064 C12.826125,4.70306713 14.9304375,6.96915159 20.0325938,5.85540159 C20.469375,7.50687118 20.2508438,7.50687118 21.4320938,9.25439145 C22.2955313,9.54254348 24.79725,1.27534416 17.47125,0.152016454 C8.89509375,-1.14425719 7.7934375,6.20101983 9.99703125,8.85103335 C10.5330938,8.30373605 10.1162813,5.30783064 11.7838125,4.01183064 Z" id="路径" fill="#434343"></path>
                    </g>
                </g>
            </g>
        </g>
    </g>
</svg>