<?xml version="1.0" encoding="UTF-8"?>
<svg width="54px" height="54px" viewBox="0 0 54 54" version="1.1" xmlns="http://www.w3.org/2000/svg" xmlns:xlink="http://www.w3.org/1999/xlink">
    <!-- Generator: Sketch 59.1 (86144) - https://sketch.com -->
    <title>全部人事事务@2x</title>
    <desc>Created with Sketch.</desc>
    <defs>
        <filter x="-38.7%" y="-44.4%" width="177.4%" height="188.9%" filterUnits="objectBoundingBox" id="filter-1">
            <feOffset dx="0" dy="2" in="SourceAlpha" result="shadowOffsetOuter1"></feOffset>
            <feGaussianBlur stdDeviation="2" in="shadowOffsetOuter1" result="shadowBlurOuter1"></feGaussianBlur>
            <feColorMatrix values="0 0 0 0 0.906759511   0 0 0 0 0.305772162   0 0 0 0 0.305772162  0 0 0 1 0" type="matrix" in="shadowBlurOuter1" result="shadowMatrixOuter1"></feColorMatrix>
            <feMerge>
                <feMergeNode in="shadowMatrixOuter1"></feMergeNode>
                <feMergeNode in="SourceGraphic"></feMergeNode>
            </feMerge>
        </filter>
        <linearGradient x1="50%" y1="0%" x2="50%" y2="100%" id="linearGradient-2">
            <stop stop-color="#FFFFFF" offset="0%"></stop>
            <stop stop-color="#FFBABA" offset="100%"></stop>
        </linearGradient>
    </defs>
    <g id="蓝色" stroke="none" stroke-width="1" fill="none" fill-rule="evenodd">
        <g id="CCHR-左导-HR管理平台-人事架构事务" transform="translate(-709.000000, -317.000000)">
            <g id="1备份-6" transform="translate(70.000000, 299.000000)">
                <g id="1备份-3" transform="translate(624.000000, 0.000000)">
                    <g id="全部人事事务" transform="translate(15.000000, 18.000000)">
                        <circle id="椭圆形" fill="#F55252" opacity="0.800000012" cx="27" cy="27" r="27"></circle>
                        <g id="renshi-3" filter="url(#filter-1)" transform="translate(12.000000, 13.500000)" fill="url(#linearGradient-2)" fill-rule="nonzero">
                            <path d="M30.8630398,23.5359248 C30.9792802,24.1580544 30.8446798,24.8009063 30.4886217,25.3241459 C30.173368,25.8330654 29.6556109,26.1829602 29.0658327,26.2856517 L25.441465,26.9146742 C24.8722164,27.0282255 24.2822543,26.8760483 23.8389553,26.5013166 C23.3448899,26.114518 23.0222504,25.5493611 22.9403518,24.9272627 L19.870123,3.52552129 C19.8394338,3.20999276 19.8545673,2.89168364 19.9150532,2.58048989 C19.9897149,2.2893791 20.1057159,2.01047226 20.2595178,1.75227695 C20.4222566,1.50040387 20.6366673,1.28599323 20.8885403,1.12325445 C21.1383665,0.955822202 21.417993,0.837870634 21.7122603,0.775794395 L25.2916978,0.145274237 C25.8732989,0.028060697 26.4763648,0.187402883 26.9241609,0.576603947 C27.4086497,0.974375026 27.720025,1.54451407 27.792811,2.16713224 L30.8630398,23.5359248 Z M15.7215699,0.0134790526 C16.3087787,0.00816008343 16.8682289,0.263008956 17.2491959,0.709896816 C17.6724266,1.16968369 17.9029575,1.77442523 17.8931951,2.3992715 L17.8931951,24.5288818 C17.9029575,25.1537281 17.6724266,25.7584696 17.2491959,26.2182565 C16.8682289,26.6651443 16.3087787,26.9201878 15.7215699,26.9148908 L12.5914342,26.9148908 C11.9992728,26.9233981 11.4339364,26.6681734 11.0488314,26.2182565 C10.6299749,25.7568141 10.4047382,25.1518928 10.4198089,24.5288818 L10.4198089,2.39627616 C10.3963253,1.79657191 10.564165,1.20493688 10.8990641,0.706901474 C11.2142045,0.244481077 11.7480923,-0.0196229654 12.3068764,0.0104837105 L15.7215699,0.0104837105 L15.7215699,0.0134790526 Z M15.7215699,16.7110308 C15.9352672,16.7045673 16.1293237,16.5847089 16.2307786,16.3965196 C16.3727192,16.1729268 16.4456461,15.9124736 16.4404527,15.6476833 C16.4491707,15.378232 16.3760701,15.112459 16.2307786,14.8853679 C16.123381,14.7050667 15.9313399,14.5921014 15.7215699,14.5858334 L12.5914342,14.5858334 C12.3775316,14.5914599 12.1806928,14.7039392 12.0672487,14.8853679 C11.9219572,15.112459 11.8488566,15.378232 11.8575746,15.6476833 C11.8523812,15.9124736 11.9253081,16.1729268 12.0672487,16.3965196 C12.1758634,16.5849192 12.3740864,16.7038531 12.5914342,16.7110308 L15.7215699,16.7110308 L15.7215699,16.7110308 Z M15.7215699,12.5025708 C15.9352672,12.4961073 16.1293237,12.3762489 16.2307786,12.1880596 C16.3746824,11.9548267 16.4475407,11.6847303 16.4404527,11.4107675 C16.4493597,11.1412939 16.3762439,10.8754658 16.2307786,10.6484522 C16.1240007,10.4675291 15.9315823,10.3543418 15.7215699,10.3489176 L12.5914342,10.3489176 C12.3773056,10.3537331 12.1801089,10.466417 12.0672487,10.6484522 C11.9217834,10.8754658 11.8486676,11.1412939 11.8575746,11.4107675 C11.8504866,11.6847303 11.9233449,11.9548267 12.0672487,12.1880596 C12.1758634,12.3764592 12.3740864,12.4953931 12.5914342,12.5025708 L15.7215699,12.5025708 L15.7215699,12.5025708 Z M6.25627908,0.0134790526 C6.85153545,0.0104575029 7.41918027,0.264286964 7.81385858,0.709896816 C8.24310283,1.16593946 8.47460018,1.77321622 8.45785779,2.3992715 L8.45785779,24.5288818 C8.47460018,25.1549371 8.24310283,25.7622138 7.81385858,26.2182565 C7.41918027,26.6638663 6.85153545,26.9176691 6.25627908,26.9147004 L3.12614334,26.9147004 C2.53088698,26.9176691 1.96324215,26.6638663 1.56856384,26.2182565 C1.14533319,25.7584696 0.914802285,25.1537281 0.924564633,24.5288818 L0.924564633,2.39627616 C0.914802285,1.77142989 1.14533319,1.16668835 1.56856384,0.706901474 C1.96324215,0.261291622 2.53088698,0.00748888557 3.12614334,0.0104575029 L6.25627908,0.0104575029 L6.25627908,0.0134790526 Z M3.24595716,8.2956085 C3.02603149,8.29355207 2.82123615,8.40732727 2.70679503,8.59514303 C2.42709525,9.05895736 2.42709525,9.63948501 2.70679503,10.1032993 C2.81609247,10.2982421 3.02246682,10.4186271 3.24595716,10.4178106 L6.13646526,10.4178106 C6.35696182,10.4218424 6.56044505,10.2997525 6.66065066,10.1032993 C6.92026069,9.63409701 6.92026069,9.06434536 6.66065066,8.59514303 C6.55507014,8.40573639 6.35324878,8.2904099 6.13646526,8.2956085 L3.24595716,8.2956085 L3.24595716,8.2956085 Z M6.25627908,18.6984424 C6.47323399,18.7043213 6.67538304,18.5888075 6.78046448,18.3989078 C6.91793477,18.1817569 6.98585939,17.9278233 6.97516192,17.671039 C6.99115893,17.4071112 6.92298796,17.1449151 6.78046448,16.9222027 C6.66976023,16.7401972 6.46915034,16.6324411 6.25627908,16.6406402 L3.24595716,16.6406402 C3.02978829,16.6355869 2.82617616,16.7419177 2.70679503,16.9222027 C2.42704839,17.3736121 2.42704839,17.944503 2.70679503,18.3959125 C2.820804,18.5841775 3.02587836,18.6981077 3.24595716,18.695447 L6.25627908,18.695447 L6.25627908,18.6984424 Z M6.25627908,14.6232752 C6.47323399,14.6291541 6.67538304,14.5136404 6.78046448,14.3237407 C7.03992391,13.8491781 7.03992391,13.2751703 6.78046448,12.8006077 C6.67513256,12.6109553 6.47314814,12.4955356 6.25627908,12.5010732 L3.24595716,12.5010732 C3.02595506,12.4987156 2.82102081,12.6125679 2.70679503,12.8006077 C2.42707467,13.2697911 2.42707467,13.8545573 2.70679503,14.3237407 C2.820804,14.5120057 3.02587836,14.6259359 3.24595716,14.6232752 L6.25627908,14.6232752 L6.25627908,14.6232752 Z" id="形状"></path>
                        </g>
                    </g>
                </g>
            </g>
        </g>
    </g>
</svg>