<?xml version="1.0" encoding="UTF-8"?>
<svg width="110px" height="42px" viewBox="0 0 110 42" version="1.1" xmlns="http://www.w3.org/2000/svg" xmlns:xlink="http://www.w3.org/1999/xlink">
    <!-- Generator: Sketch 59.1 (86144) - https://sketch.com -->
    <title>形状结合@2x</title>
    <desc>Created with Sketch.</desc>
    <g id="蓝色" stroke="none" stroke-width="1" fill="none" fill-rule="evenodd">
        <g id="CCHR登录1366" transform="translate(-1333.000000, -113.000000)" fill="#FFFFFF" fill-rule="nonzero">
            <g id="登录" transform="translate(1162.000000, 113.000000)">
                <path d="M260,0 C271.59798,-2.13051432e-15 281,9.40202025 281,21 C281,32.5979797 271.59798,42 260,42 L192,42 C180.40202,42 171,32.5979797 171,21 C171,9.40202025 180.40202,2.13051432e-15 192,0 L260,0 Z M241,16 L211,16 C208.238576,16 206,18.2385763 206,21 C206,23.7614237 208.238576,26 211,26 L211,26 L241,26 C243.761424,26 246,23.7614237 246,21 C246,18.2385763 243.761424,16 241,16 L241,16 Z" id="形状结合"></path>
            </g>
        </g>
    </g>
</svg>