<?xml version="1.0" encoding="UTF-8"?>
<svg width="54px" height="54px" viewBox="0 0 54 54" version="1.1" xmlns="http://www.w3.org/2000/svg" xmlns:xlink="http://www.w3.org/1999/xlink">
    <!-- Generator: Sketch 59.1 (86144) - https://sketch.com -->
    <title>部门管理@2x</title>
    <desc>Created with Sketch.</desc>
    <defs>
        <filter x="-46.2%" y="-44.4%" width="192.3%" height="188.9%" filterUnits="objectBoundingBox" id="filter-1">
            <feOffset dx="0" dy="2" in="SourceAlpha" result="shadowOffsetOuter1"></feOffset>
            <feGaussianBlur stdDeviation="2" in="shadowOffsetOuter1" result="shadowBlurOuter1"></feGaussianBlur>
            <feColorMatrix values="0 0 0 0 0.810688406   0 0 0 0 0.666282458   0 0 0 0 0.165675174  0 0 0 0.7 0" type="matrix" in="shadowBlurOuter1" result="shadowMatrixOuter1"></feColorMatrix>
            <feMerge>
                <feMergeNode in="shadowMatrixOuter1"></feMergeNode>
                <feMergeNode in="SourceGraphic"></feMergeNode>
            </feMerge>
        </filter>
        <linearGradient x1="50%" y1="0%" x2="50%" y2="100%" id="linearGradient-2">
            <stop stop-color="#FFFFFF" offset="0%"></stop>
            <stop stop-color="#FFE89A" offset="100%"></stop>
        </linearGradient>
    </defs>
    <g id="蓝色" stroke="none" stroke-width="1" fill="none" fill-rule="evenodd">
        <g id="CCHR-左导-HR管理平台-人事架构事务" transform="translate(-501.000000, -479.000000)">
            <g id="1备份-7" transform="translate(70.000000, 461.000000)">
                <g id="1备份-2" transform="translate(416.000000, 0.000000)">
                    <g id="部门管理" transform="translate(15.000000, 18.000000)">
                        <circle id="椭圆形" fill="#FFD74C" opacity="0.800000012" cx="27" cy="27" r="27"></circle>
                        <g id="zuzhi-copy" filter="url(#filter-1)" transform="translate(14.000000, 14.000000)" fill-rule="nonzero">
                            <path d="M13.0383527,15 C16.2113945,15 18.7836531,17.5722586 18.7836531,20.7453004 C18.7836531,23.9183422 16.2113945,26.4906008 13.0383527,26.4906008 C9.86531096,26.4906008 7.29305236,23.9183422 7.29305236,20.7453004 C7.29305236,17.5722586 9.86531096,15 13.0383527,15 Z M21.5513988,4.20410644 C23.0415999,4.35593889 24.2984584,5.4955631 24.599209,6.9896392 C24.9103466,8.5303603 24.1696042,10.1376569 22.5890221,10.885178 C22.6526886,10.9129974 22.697252,10.933894 22.7443133,10.9549347 C24.2963875,11.6263367 25.2058397,12.7912877 25.4313039,14.4734597 C25.4558034,14.6546327 25.4607833,14.8360834 25.4613384,15.0178062 L25.462793,17.6443662 L25.4627945,20.4274957 C23.6001399,20.7424545 21.7386724,20.8541539 19.853823,20.7537512 L19.8545888,20.789515 C19.8545888,19.5329764 19.5162627,18.355458 18.9257362,17.3430858 L18.9222582,15.1358679 C18.9212214,14.8466705 18.9058602,14.5542034 18.8678228,14.2659405 L18.863048,14.2421433 L18.860034,14.2012627 C18.7796056,13.5542355 18.6149036,12.9242483 18.3520284,12.3135166 C18.3376329,12.280856 18.3255914,12.2477738 18.3103687,12.2145581 C18.1595076,11.8859827 18.1561877,11.882524 18.4257989,11.6501423 C18.7286312,11.3878648 19.0714579,11.1845515 19.4368464,11.022615 C19.5329013,10.9806778 19.631166,10.9434482 19.7607141,10.8904408 C18.8859987,10.4723224 18.2644229,9.84700494 17.9192424,8.97021329 C17.5719855,8.0913453 17.5848544,7.20569329 17.9429091,6.3330489 C18.527533,4.90816904 19.9978035,4.04687767 21.5513988,4.20410644 Z M4.94701053,4.1870743 C6.64440527,4.20603335 7.93516806,5.36946844 8.30568069,6.80666206 C8.71093023,8.37312625 7.9967636,10.1153673 6.33936324,10.8890478 C6.40773749,10.9194986 6.45922367,10.9445478 6.51278616,10.9655885 C7.00066125,11.1588031 7.43580651,11.435887 7.82527819,11.7874352 C7.90320135,11.8580192 7.93088198,11.9101993 7.87870192,12.0145594 C7.68139123,12.4116147 7.52863601,12.8190787 7.41641487,13.2358613 L7.37004797,13.4211433 L7.34517514,13.510415 C7.24193117,13.8969086 7.17800742,14.2976916 7.15714785,14.7078162 L7.14982976,14.9549724 C7.14323965,15.7204004 7.14003984,16.4857121 7.13877486,17.2509587 C6.51951505,18.2739247 6.16086924,19.4730418 6.15462867,20.75547 C4.30064216,20.8513485 2.46313145,20.7378606 0.624631723,20.4269406 L0.624631723,20.2704058 C0.624631723,18.5133584 0.607055105,16.7570049 0.629339446,15.0027223 C0.653838883,13.1662305 1.51831144,11.8439121 3.16491389,11.0321693 C3.26733118,10.980539 3.37500596,10.9419217 3.49140765,10.8923731 C1.56176998,9.98305424 1.13963238,7.94698014 1.58834038,6.60860625 C2.08756848,5.11729502 3.44822138,4.17005279 4.94701053,4.1870743 Z M18.855048,14.1901433 L18.857048,14.2011433 L18.856048,14.2011433 L18.860048,14.2241433 L18.863048,14.2421433 L18.8932898,14.526186 C18.902077,14.6349602 18.9085877,14.7441976 18.9128861,14.8538877 L18.9192091,15.1843063 C18.918984,15.899587 18.9189414,16.615323 18.9189704,17.3312375 C17.7296981,15.3020913 15.5262586,13.9394935 13.0045673,13.9394935 C10.5387561,13.9394935 8.3772482,15.2423708 7.1708998,17.197269 L7.17145276,15.1706048 C7.17103644,14.6177475 7.22452955,14.0768957 7.33978633,13.5501785 L7.37004797,13.4211433 L7.41181,13.2802732 C7.93462813,11.6057216 9.20418929,10.2269706 10.9015691,9.56549097 L11.0263567,9.51581007 C11.0494138,9.50634775 11.0741576,9.49610614 11.1014237,9.48480294 C9.85135452,8.89284526 8.9780216,7.97937383 8.51311941,6.69691632 C8.14855815,5.69182019 8.13845949,4.6701189 8.4522231,3.65228732 C9.06604877,1.65759535 10.9246861,0.297769782 13.028574,0.286212872 C15.119038,0.274796909 17.0182302,1.66853205 17.6204307,3.6686203 C17.9700414,4.82928518 17.9065136,5.97167425 17.4016117,7.07614522 C16.8994746,8.17534797 16.0803981,8.96605533 14.9948862,9.47151238 C15.3266427,9.6348313 15.6683645,9.77572709 15.9819893,9.96271279 C17.5249256,10.8760454 18.4810281,12.215663 18.8219173,13.9793557 L18.822048,13.9841433 L18.822048,13.9861433 L18.828048,14.0201433 L18.828048,14.0231433 L18.835048,14.0651433 L18.835048,14.0691433 L18.840048,14.1001433 L18.844048,14.1201433 L18.844048,14.1251433 L18.854048,14.1831433 L18.855048,14.1901433 Z" id="形状结合" fill="url(#linearGradient-2)"></path>
                            <path d="M13.0347021,22.5472375 C13.7307836,22.5508067 14.3602006,22.1339052 14.62845,21.4915777 C14.8966993,20.8492501 14.7507288,20.1085308 14.2588378,19.6160009 C13.7669468,19.1234711 13.0264175,18.9765394 12.3837423,19.2439548 C11.7410672,19.5113703 11.3233492,20.1402457 11.326025,20.8363313 C11.327257,21.7798548 12.091181,22.5447709 13.0347021,22.5472375 L13.0347021,22.5472375 Z M9.04042173,20.8363313 C9.04028812,20.5526221 9.06703619,20.2695383 9.12030783,19.9908753 C9.60703803,19.9361885 10.0362836,19.6469863 10.2697728,19.2164289 C10.5188523,18.7662358 10.5402488,18.2247405 10.327468,17.7562976 C10.7519318,17.3431523 11.2638343,17.0307021 11.8253229,16.8420514 C12.0935936,17.2619687 12.5574862,17.516084 13.055783,17.516084 C13.5540799,17.516084 14.0179724,17.2619687 14.2862432,16.8420514 C14.846214,17.0351857 15.3557715,17.3513843 15.777441,17.7673929 C15.5710533,18.2345349 15.5973771,18.7717046 15.8484504,19.2164289 C16.0783899,19.6286495 16.4899184,19.9076658 16.9579726,19.9686849 C17.0775401,20.5779486 17.066953,21.2056071 16.926906,21.8104917 C16.4696965,21.8887232 16.0737435,22.1725985 15.8528885,22.5805001 C15.6258013,22.9875941 15.5853624,23.4728611 15.7419363,23.9119268 C15.303516,24.3325348 14.7743582,24.6468409 14.1952623,24.8306112 C13.9195431,24.4748669 13.4947713,24.2666695 13.0446878,24.2666695 C12.5946044,24.2666695 12.1698325,24.4748669 11.8941133,24.8306112 C11.3244105,24.6485856 10.803768,24.3389323 10.3718489,23.925241 C10.5380166,23.4801546 10.5007077,22.9845949 10.2697728,22.5694049 C10.043973,22.1496449 9.63212549,21.8621754 9.16025063,21.7949584 C9.08522753,21.4807857 9.04504237,21.1593044 9.04042173,20.8363313 Z" id="形状" fill="#F3D058"></path>
                        </g>
                    </g>
                </g>
            </g>
        </g>
    </g>
</svg>