<?xml version="1.0" encoding="UTF-8"?>
<svg width="24px" height="24px" viewBox="0 0 24 24" version="1.1" xmlns="http://www.w3.org/2000/svg" xmlns:xlink="http://www.w3.org/1999/xlink">
    <!-- Generator: Sketch 59.1 (86144) - https://sketch.com -->
    <title>删除@2x</title>
    <desc>Created with Sketch.</desc>
    <g id="蓝色" stroke="none" stroke-width="1" fill="none" fill-rule="evenodd">
        <g id="CCHR-左导-系统设置-流程设置" transform="translate(-1240.000000, -316.000000)">
            <g id="我的代办事项" transform="translate(70.000000, 218.000000)">
                <g id="1" transform="translate(0.000000, 91.000000)">
                    <g id="删除" transform="translate(1170.000000, 7.000000)">
                        <circle id="椭圆形" fill="#FF8383" opacity="0.200000003" cx="12" cy="12" r="12"></circle>
                        <g transform="translate(6.000000, 6.000000)" fill-rule="nonzero">
                            <rect id="矩形" fill="#000000" opacity="0" x="0" y="0" width="12" height="12"></rect>
                            <polygon id="路径" fill="#FF8383" points="0.666666668 2 11.3333333 2 11.3333333 3.33333333 0.666666668 3.33333333"></polygon>
                            <path d="M10,11.3333333 L2,11.3333333 L2,2 L10,2 L10,11.3333333 L10,11.3333333 Z M3.33333333,10 L8.66666667,10 L8.66666667,3.33333333 L3.33333333,3.33333333 L3.33333333,10 Z M4,0.666666668 L8,0.666666668 L8,2 L4,2 L4,0.666666668 Z" id="形状" fill="#FF8383"></path>
                            <polygon id="路径" fill="#FF8383" points="5.33333333 5.33333333 6.66666667 5.33333333 6.66666667 8 5.33333333 8"></polygon>
                        </g>
                    </g>
                </g>
            </g>
        </g>
    </g>
</svg>