<?xml version="1.0" encoding="UTF-8"?>
<svg width="18px" height="18px" viewBox="0 0 18 18" version="1.1" xmlns="http://www.w3.org/2000/svg" xmlns:xlink="http://www.w3.org/1999/xlink">
    <title>1列表操作@3x</title>
    <g id="A+max" stroke="none" stroke-width="1" fill="none" fill-rule="evenodd">
        <g id="A+MAX01-1房源列表" transform="translate(-1494.000000, -306.000000)" fill="#D8D8D8">
            <g id="编组" transform="translate(450.000000, 213.000000)">
                <g id="编组-13" transform="translate(0.000000, 42.000000)">
                    <g id="编组-14" transform="translate(20.000000, 50.000000)">
                        <g id="编组-16" transform="translate(96.000000, 1.000000)">
                            <g id="编组-22" transform="translate(928.000000, 0.000000)">
                                <path d="M13,0 C15.7614237,-5.07265313e-16 18,2.23857625 18,5 L18,13 C18,15.7614237 15.7614237,18 13,18 L5,18 C2.23857625,18 3.38176876e-16,15.7614237 0,13 L0,5 C-3.38176876e-16,2.23857625 2.23857625,5.07265313e-16 5,0 L13,0 Z M13,12 L5,12 C4.44771525,12 4,12.4477153 4,13 C4,13.5522847 4.44771525,14 5,14 L5,14 L13,14 C13.5522847,14 14,13.5522847 14,13 C14,12.4477153 13.5522847,12 13,12 L13,12 Z M13,8 L5,8 C4.44771525,8 4,8.44771525 4,9 C4,9.55228475 4.44771525,10 5,10 L5,10 L13,10 C13.5522847,10 14,9.55228475 14,9 C14,8.44771525 13.5522847,8 13,8 L13,8 Z M13,4 L5,4 C4.44771525,4 4,4.44771525 4,5 C4,5.55228475 4.44771525,6 5,6 L5,6 L13,6 C13.5522847,6 14,5.55228475 14,5 C14,4.44771525 13.5522847,4 13,4 L13,4 Z" id="1列表操作"></path>
                            </g>
                        </g>
                    </g>
                </g>
            </g>
        </g>
    </g>
</svg>