<?xml version="1.0" encoding="UTF-8"?>
<svg width="158px" height="15px" viewBox="0 0 158 15" version="1.1" xmlns="http://www.w3.org/2000/svg" xmlns:xlink="http://www.w3.org/1999/xlink">
    <!-- Generator: Sketch 59.1 (86144) - https://sketch.com -->
    <title>中原人力资源管理系统@2x</title>
    <desc>Created with Sketch.</desc>
    <g id="蓝色" stroke="none" stroke-width="1" fill="none" fill-rule="evenodd">
        <g id="CCHR首页-蓝色" transform="translate(-58.000000, -17.000000)" fill="#FFFFFF" fill-rule="nonzero">
            <g id="顶部">
                <g id="编组-5" transform="translate(15.000000, 8.000000)">
                    <path d="M43.375,19.6875 L43.375,11.375 L48.5625,11.375 L48.5625,9.0625 L51.4375,9.0625 L51.4375,11.375 L56.625,11.375 L56.625,16.75 C56.7083338,18.8333438 55.8541756,19.8125006 54.0625,19.6875 L51.4375,19.6875 L51.4375,23.625 L48.5625,23.625 L48.5625,19.6875 L43.375,19.6875 Z M46,13.1875 L46,17.875 L48.5625,17.875 L48.5625,13.1875 L46,13.1875 Z M54,13.1875 L51.4375,13.1875 L51.4375,17.875 L53.125,17.875 C53.7500031,17.875 54.0416669,17.5208369 54,16.8125 L54,13.1875 Z M68.2565,11.625 C68.2565,11.7083338 68.2356669,11.7916663 68.194,11.875 C68.194,12.1666681 68.1523337,12.3749994 68.069,12.5 L72.3815,12.5 L72.3815,16.1875 C72.4648337,17.9375087 71.6940081,18.7708338 70.069,18.6875 L69.0065,18.6875 L69.0065,21.3125 C69.0463553,22.6675792 68.4190774,23.3555065 67.1246483,23.3762997 L65.194,23.375 L65.194,21.8125 L65.7565,21.8125 C66.2565025,21.8541669 66.4856669,21.6041694 66.444,21.0625 L66.444,18.6875 L62.944,18.6875 L62.944,12.5 L65.3815,12.5 C65.4648337,12.2499987 65.5273331,11.958335 65.569,11.625 L68.2565,11.625 Z M73.2565,11.4375 L62.2565,11.4375 L62.2565,18.5625 C62.3815,20.8541781 61.2565119,22.5416613 58.8815,23.625 L58.8815,21.9375 C59.3815,21.3124969 59.6106669,20.3541731 59.569,19.0625 L59.569,9.625 L73.2565,9.625 L73.2565,11.4375 Z M63.7565,19.1875 L66.1315,19.1875 C65.7148313,21.1875 64.3815113,22.4374975 62.1315,22.9375 L62.1315,21.4375 C63.0065044,20.9791644 63.5481656,20.2291719 63.7565,19.1875 Z M71.569,19.1875 C71.819,20.1458381 72.3606625,20.8958306 73.194,21.4375 L73.194,22.9375 C70.9023219,22.3958306 69.6106681,21.1458431 69.319,19.1875 L71.569,19.1875 Z M69.1315,17.0625 C69.6731694,17.1041669 69.9231669,16.8541694 69.8815,16.3125 L65.444,16.3125 L65.444,17.0625 L69.1315,17.0625 Z M69.8815,14.125 L65.444,14.125 L65.444,14.875 L69.8815,14.875 L69.8815,14.125 Z M89.0755,23.5 C85.3671481,21.7083244 82.9713388,19.5416794 81.888,17 C80.8463281,19.5416794 78.4505188,21.7083244 74.7005,23.5 L74.7005,21.75 C78.5755194,18.749985 80.4713338,15.1041881 80.388,10.8125 L80.388,9.1875 L83.388,9.1875 L83.388,10.8125 C83.3046663,15.1041881 85.2004806,18.749985 89.0755,21.75 L89.0755,23.5 Z M94.8945,11.0625 L94.8945,9.0625 L97.832,9.0625 L97.832,11.0625 L104.457,11.0625 L104.457,20.4375 C104.497179,22.2857235 103.626891,23.2234543 101.846111,23.2507175 L99.082,23.25 L99.082,21.5 L100.582,21.5 C101.207003,21.5 101.5195,21.1458369 101.5195,20.4375 L101.5195,13 L97.707,13 C97.6653331,17.9583581 95.31119,21.4999894 90.6445,23.625 L90.6445,21.6875 C93.3528469,19.8958244 94.7486662,17.00002 94.832,13 L90.957,13 L90.957,11.0625 L94.8945,11.0625 Z M119.526,20.625 L116.8385,20.625 L116.8385,17.75 L110.776,17.75 L110.776,20.625 L108.151,20.625 L108.151,16.125 L119.526,16.125 L119.526,20.625 Z M113.901,21.6875 C112.192658,22.8125 109.755183,23.3958331 106.5885,23.4375 L106.5885,22 C110.713521,21.5416644 112.651001,20.4375087 112.401,18.6875 L112.401,18.3125 L115.276,18.3125 L115.276,18.6875 C115.025999,20.2291744 116.880147,21.33333 120.8385,22 L120.8385,23.4375 C117.838485,23.3541662 115.526008,22.7708387 113.901,21.6875 Z M115.526,14.3125 C114.400994,15.3958387 112.630179,15.9583331 110.2135,16 L110.2135,14.6875 C112.796846,14.1875 114.109333,13.2916731 114.151,12 L114.151,11.6875 L116.901,11.6875 L116.901,12.0625 C116.984334,13.2291725 118.35932,14.0833306 121.026,14.625 L121.026,16 C118.400987,15.8749994 116.567672,15.312505 115.526,14.3125 Z M110.4635,11.4375 C111.505172,10.8124969 112.109333,10.0208381 112.276,9.0625 L114.776,9.0625 C114.734333,9.31250125 114.671834,9.54166563 114.5885,9.75 L120.651,9.75 L120.651,12.625 L118.276,12.625 L118.276,11.25 L113.651,11.25 C112.942663,12.0416706 111.880174,12.5208325 110.4635,12.6875 L110.4635,11.4375 Z M109.026,15.9375 L106.401,15.9375 C107.109337,14.8541612 107.609332,13.6250069 107.901,12.25 L110.0885,12.25 C110.005166,13.4583394 109.651003,14.6874937 109.026,15.9375 Z M109.151,9.1875 C109.567669,9.81250312 109.900999,10.624995 110.151,11.625 L107.651,11.625 C107.484333,10.6666619 107.192669,9.85417 106.776,9.1875 L109.151,9.1875 Z M133.47,11.625 C133.428333,11.958335 133.365834,12.2499987 133.2825,12.5 L136.47,12.5 L136.47,16.4375 C136.509931,17.9149379 135.880199,18.6652931 134.580786,18.6885851 L133.97,18.6875 L133.97,21.4375 C134.009855,22.7925792 133.363516,23.4805065 132.030965,23.5012997 L130.47,23.5 L130.47,21.9375 L130.9075,21.9375 C131.407502,21.9791669 131.636667,21.7291694 131.595,21.1875 L131.595,18.6875 L129.0325,18.6875 L129.0325,12.5 L130.72,12.5 C130.803334,12.2499987 130.865833,11.958335 130.9075,11.625 L133.47,11.625 Z M136.97,11.4375 L128.595,11.4375 L128.595,18.5625 C128.720001,20.8541781 127.699177,22.5416613 125.5325,23.625 L125.5325,21.9375 C126.0325,21.1041625 126.261667,20.1458387 126.22,19.0625 L126.22,9.625 L136.97,9.625 L136.97,11.4375 Z M124.845,23.25 L122.345,23.25 C123.178337,21.0833225 123.636666,19 123.72,17 L125.845,17 C125.719999,19.2083444 125.386669,21.2916569 124.845,23.25 Z M124.72,9.4375 C125.220003,10.4375 125.5325,11.4583281 125.6575,12.5 L123.345,12.5 C123.261666,11.7499963 122.990836,10.7291731 122.5325,9.4375 L124.72,9.4375 Z M124.97,13.1875 C125.303335,13.8958369 125.594999,14.8958269 125.845,16.1875 L123.5325,16.1875 C123.324166,15.0208275 123.053335,14.0208375 122.72,13.1875 L124.97,13.1875 Z M129.47,19.125 L131.345,19.125 C131.303333,21.0416763 130.28251,22.3124969 128.2825,22.9375 L128.2825,21.625 C128.94917,20.9999969 129.344999,20.1666719 129.47,19.125 Z M135.97,19.125 C136.095001,20.2500056 136.449164,21.0624975 137.0325,21.5625 L137.0325,22.9375 C135.115824,22.3124969 134.1575,21.0416763 134.1575,19.125 L135.97,19.125 Z M133.5325,17.0625 C134.032502,17.0625 134.261667,16.8333356 134.22,16.375 L134.22,16.3125 L131.2825,16.3125 L131.2825,17.0625 L133.5325,17.0625 Z M134.22,14.125 L131.2825,14.125 L131.2825,14.875 L134.22,14.875 L134.22,14.125 Z M138.664,12.6875 L138.664,11.4375 C139.497338,10.9791644 139.997332,10.2291719 140.164,9.1875 L142.539,9.1875 C142.497333,9.43750125 142.434834,9.62499938 142.3515,9.75 L145.789,9.75 L145.789,11.3125 L144.1015,11.3125 C144.1015,11.3958337 144.143166,11.5416656 144.2265,11.75 L144.2765,12.0200005 C144.3015,12.1400005 144.3265,12.2375 144.3515,12.3125 L145.539,12.3125 L145.539,11.5 C146.330671,11.0833313 146.768166,10.3125056 146.8515,9.1875 L149.2265,9.1875 C149.2265,9.27083375 149.205667,9.35416625 149.164,9.4375 C149.164,9.6041675 149.143167,9.70833312 149.1015,9.75 L152.8515,9.75 L152.8515,11.3125 L151.039,11.3125 C151.039,11.4375006 151.080666,11.6041656 151.164,11.8125 L151.214,12.1325004 C151.239,12.2775001 151.264,12.3999995 151.289,12.5 L149.2265,12.5 C149.184833,12.0833313 149.101501,11.6875 148.9765,11.3125 L148.414,11.3125 C148.122332,11.7708356 147.684836,12.1249987 147.1015,12.375 L147.1015,12.9375 L152.664,12.9375 L152.664,15.3125 L151.164,15.3125 L151.164,16.8125 C151.203773,18.125 150.655096,18.7920973 149.517952,18.8137913 L142.664,18.8125 L142.664,19.4375 L151.7265,19.4375 L151.7265,21.25 C151.766355,22.565224 151.158138,23.2323574 149.901832,23.2514178 L140.039,23.25 L140.039,15.3125 L138.7265,15.3125 L138.7265,12.9375 L144.164,12.9375 L144.164,12.5 L142.289,12.5 C142.247333,12.3333325 142.205667,12.1041681 142.164,11.8125 C142.080666,11.6041656 142.039,11.4375006 142.039,11.3125 L141.539,11.3125 C140.997331,11.97917 140.039007,12.4374987 138.664,12.6875 Z M149.164,20.875 L142.664,20.875 L142.664,21.8125 L148.6015,21.8125 C149.018169,21.8541669 149.205667,21.6875019 149.164,21.3125 L149.164,20.875 Z M141.3515,14.5 L141.3515,15.125 L150.039,15.125 L150.039,14.5 L141.3515,14.5 Z M148.6015,16.5625 L142.664,16.5625 L142.664,17.375 L148.1015,17.375 C148.476502,17.375 148.643167,17.208335 148.6015,16.875 L148.6015,16.5625 Z M159.483,20.1875 L159.483,18.4375 L162.6705,18.4375 L162.6705,17.375 L159.483,17.375 L159.483,9.5625 L168.4205,9.5625 L168.4205,15.1875 C168.460431,16.6250072 167.792433,17.3545653 166.416486,17.3761936 L165.1705,17.375 L165.1705,18.4375 L168.4205,18.4375 L168.4205,20.1875 L165.1705,20.1875 L165.1705,21.375 L168.983,21.375 L168.983,23 L158.7955,23 L158.7955,21.625 C157.4205,22.0000019 155.962174,22.2916656 154.4205,22.5 L154.4205,20.5 C154.587167,20.5 154.816332,20.4791669 155.108,20.4375 L155.6705,20.4375 L155.6705,16.375 L154.608,16.375 L154.608,14.625 L155.6705,14.625 L155.6705,11.5 L154.5455,11.5 L154.5455,9.75 L159.108,9.75 L159.108,11.5 L158.108,11.5 L158.108,14.625 L159.0455,14.625 L159.0455,16.375 L158.108,16.375 L158.108,20 C158.233001,19.9583331 158.4205,19.9166669 158.6705,19.875 C158.878834,19.7916662 159.045499,19.75 159.1705,19.75 L159.1705,21.375 L162.6705,21.375 L162.6705,20.1875 L159.483,20.1875 Z M161.733,14.3125 L161.733,15.625 L162.6705,15.625 L162.6705,14.3125 L161.733,14.3125 Z M161.733,11.375 L161.733,12.5625 L162.6705,12.5625 L162.6705,11.375 L161.733,11.375 Z M166.1705,11.375 L165.1705,11.375 L165.1705,12.5625 L166.1705,12.5625 L166.1705,11.375 Z M165.2955,15.625 C165.878836,15.625 166.1705,15.3541694 166.1705,14.8125 L166.1705,14.3125 L165.1705,14.3125 L165.1705,15.625 L165.2955,15.625 Z M170.927,9.8125 L179.4895,9.8125 C181.197842,9.8125 182.822826,9.645835 184.3645,9.3125 L184.3645,11.25 C182.822826,11.6250019 181.343674,11.7916669 179.927,11.75 L179.177,11.75 C178.093661,12.41667 176.989506,12.9374981 175.8645,13.3125 C177.156173,13.3125 178.197829,13.2708337 178.9895,13.1875 C179.364502,12.9791656 179.739498,12.7500013 180.1145,12.5 L184.1145,12.5 C181.697821,14.2916756 178.989515,15.7083281 175.9895,16.75 C177.864509,16.75 179.656158,16.6875006 181.3645,16.5625 C181.239499,16.1041644 181.052001,15.6041694 180.802,15.0625 L183.052,15.0625 C183.71867,16.4375069 184.156166,17.7083275 184.3645,18.875 L181.927,18.875 L181.927,18.5625 C181.885333,18.4374994 181.8645,18.3541669 181.8645,18.3125 L181.6145,18.3164062 C181.33325,18.3242187 180.958252,18.3437498 180.4895,18.375 C179.864497,18.375 179.385335,18.3958331 179.052,18.4375 L179.052,21.375 C179.052,22.7699345 178.384867,23.4786555 177.050583,23.5011815 L175.1145,23.5 L175.1145,21.8125 L175.677,21.8125 C176.093669,21.8125 176.302,21.6041687 176.302,21.1875 L176.302,18.5 L174.802,18.5 L173.959498,18.5200001 C172.879497,18.5400002 171.972837,18.5333335 171.2395,18.5 L171.2395,16.6875 C172.697841,16.2291644 174.176993,15.6458369 175.677,14.9375 C174.468661,14.9791669 173.114508,15 171.6145,15 L171.6145,13.3125 C172.822839,12.8958313 174.010328,12.3750031 175.177,11.75 L170.927,11.75 L170.927,9.8125 Z M182.177,19 C182.593669,20.2500062 183.426994,21.1458306 184.677,21.6875 L184.677,23.0625 C181.968653,22.6458313 180.260337,21.2916781 179.552,19 L182.177,19 Z M172.927,19 L175.552,19 C174.843663,21.2916781 173.135347,22.6458313 170.427,23.0625 L170.427,21.6875 C171.677006,21.1458306 172.510331,20.2500062 172.927,19 Z M191.246,12 L191.246,10.25 L194.5585,10.25 L194.5585,9.1875 L197.3085,9.1875 L197.3085,10.25 L200.5585,10.25 L200.5585,12 L196.496,12 C195.82933,13.2500063 195.037671,14.20833 194.121,14.875 L194.879878,14.8720414 C196.216912,14.8611934 197.255612,14.8205132 197.996,14.75 C197.829333,14.2083306 197.600168,13.6250031 197.3085,13 L199.371,13 C200.03767,14.2916731 200.495999,15.6249931 200.746,17 L198.621,17 C198.537666,16.7499987 198.496,16.5625006 198.496,16.4375 L198.121,16.4375 L198.121,20.9375 C198.121,21.3541687 198.3085,21.5625 198.6835,21.5625 C199.016835,21.5625 199.1835,21.3541687 199.1835,20.9375 L199.1835,20.25 L200.8085,20.25 L200.8085,21.5625 C200.8085,22.6458387 200.225173,23.1875 199.0585,23.1875 L197.746,23.1875 C196.473266,23.2272729 195.826965,22.6785956 195.807079,21.5414522 L195.8085,16.6875 C195.725166,16.6875 195.600167,16.7083331 195.4335,16.75 L195.121,16.75 L195.121,18 C195.246001,20.5416794 193.850181,22.3958275 190.9335,23.5625 L190.9335,21.9375 C191.058501,21.8541662 191.183499,21.7500006 191.3085,21.625 C189.850159,22.0416687 188.183509,22.25 186.3085,22.25 L186.3085,20.5 C188.225176,20.5416669 189.933492,20.3750019 191.4335,20 L191.4335,21.5 C192.350171,20.6666625 192.787667,19.4583413 192.746,17.875 L192.746,16.8125 L191.496,16.8125 L191.496,14.875 C192.371004,14.0416625 193.079331,13.0833387 193.621,12 L191.246,12 Z M191.6835,12.125 C191.225164,14.2500106 190.225174,16.0833256 188.6835,17.625 C189.516838,17.625 190.370996,17.5416675 191.246,17.375 L191.246,19.0625 C189.91266,19.395835 188.329342,19.5416669 186.496,19.5 L186.496,17.625 C187.246,16.8749963 187.850164,16.0833375 188.3085,15.25 C187.683497,15.3333337 186.996004,15.3541669 186.246,15.3125 L186.246,13.5625 C187.037671,12.3124937 187.558499,10.854175 187.8085,9.1875 L190.121,9.1875 C189.829332,10.7708413 189.183505,12.22916 188.1835,13.5625 C188.475168,13.5625 188.766832,13.5416669 189.0585,13.5 C189.225167,13.0833313 189.370999,12.6250025 189.496,12.125 L191.6835,12.125 Z" id="中原人力资源管理系统"></path>
                </g>
            </g>
        </g>
    </g>
</svg>