<?xml version="1.0" standalone="no"?><!DOCTYPE svg PUBLIC "-//W3C//DTD SVG 1.1//EN" "http://www.w3.org/Graphics/SVG/1.1/DTD/svg11.dtd"><svg class="icon" width="200px" height="200.00px" viewBox="0 0 1024 1024" version="1.1" xmlns="http://www.w3.org/2000/svg"><path d="M895.268571 167.789714c187.465143 205.897143 167.936 520.630857-43.739428 703.049143-144.237714 124.342857-347.428571 158.939429-525.897143 91.136l-19.017143-7.68-200.045714 68.169143a27.501714 27.501714 0 0 1-34.816-16.237714 25.746286 25.746286 0 0 1 0-17.554286l57.051428-160.329143C-58.806857 622.445714-39.277714 307.638857 172.397714 125.293714c211.675429-182.418286 535.259429-163.401143 722.797715 42.496z m-381.074285 514.925715a64.073143 64.073143 0 0 0-45.129143 16.749714 55.149714 55.149714 0 0 0-18.066286 43.008c0 17.554286 5.705143 31.890286 17.993143 43.154286 12.288 11.117714 27.062857 17.481143 45.056 17.481142a64.219429 64.219429 0 0 0 45.129143-16.749714 57.563429 57.563429 0 0 0 18.944-43.885714 58.148571 58.148571 0 0 0-18.139429-43.154286 66.267429 66.267429 0 0 0-45.860571-16.603428z m14.628571-460.214858c-60.635429 0-108.178286 16.822857-143.433143 50.249143-36.059429 33.499429-54.198857 79.725714-54.198857 138.825143 1.243429 9.874286 17.188571 14.848 47.762286 14.848 30.72 0 46.226286-4.973714 46.665143-14.848 0-33.572571 6.582857-59.830857 20.48-78.189714 15.506286-22.381714 40.96-32.694857 77.019428-32.694857 27.867429 0 49.956571 7.168 65.536 22.308571 14.848 15.213714 23.04 35.913143 23.04 62.171429 0 19.968-7.387429 39.131429-22.162285 56.685714l-9.801143 11.117714c-53.321143 46.299429-85.357714 79.725714-95.890286 101.302857-11.556571 21.504-16.384 47.835429-16.384 78.189715v7.533714c0 26.185143 94.208 22.454857 94.208 3.657143v-11.190857c0-19.163429 4.096-35.84 12.288-51.785143 5.924571-11.556571 13.897143-22.528 24.429714-32.548572l55.588572-48.493714c11.849143-10.532571 19.602286-17.92 23.332571-21.942857 19.675429-25.526857 30.281143-58.148571 30.281143-98.084571 0-48.566857-16.384-86.893714-49.152-114.834286-32.841143-28.672-76.214857-42.203429-129.536-42.203429v-0.073143z" /></svg>