<?xml version="1.0" encoding="UTF-8"?>
<svg width="18px" height="18px" viewBox="0 0 18 18" version="1.1" xmlns="http://www.w3.org/2000/svg" xmlns:xlink="http://www.w3.org/1999/xlink">
    <!-- Generator: Sketch 59.1 (86144) - https://sketch.com -->
    <title>HR管理平台@2x</title>
    <desc>Created with Sketch.</desc>
    <defs>
        <linearGradient x1="50%" y1="0%" x2="50%" y2="100%" id="linearGradient-1">
            <stop stop-color="#6F9FFF" offset="0%"></stop>
            <stop stop-color="#3D7EFF" offset="100%"></stop>
        </linearGradient>
        <linearGradient x1="50%" y1="0%" x2="50%" y2="100%" id="linearGradient-2">
            <stop stop-color="#3D7EFF" offset="0%"></stop>
            <stop stop-color="#6F9FFF" offset="100%"></stop>
        </linearGradient>
    </defs>
    <g id="蓝色" stroke="none" stroke-width="1" fill="none" fill-rule="evenodd">
        <g id="CCHR-左导-HR管理平台-架构备份" transform="translate(-21.000000, -268.000000)" fill-rule="nonzero">
            <g id="左导">
                <g id="HR管理平台" transform="translate(21.000000, 268.000000)">
                    <g>
                        <g id="renshi" fill="url(#linearGradient-1)">
                            <path d="M17.6986635,5.23720898 C17.6912552,5.18423364 17.6822664,5.13640128 17.6706353,5.09931092 C17.6129739,4.88320392 17.5193573,4.70180579 17.391613,4.55998082 L14.4015134,0.446879363 L14.3546928,0.391395868 C14.1240715,0.156490347 13.8072421,0.0219111576 13.4851033,0.0219111576 L4.46615635,0.0219111576 C4.13873298,0.0219111576 3.82958349,0.153171449 3.59552974,0.391395868 L0.559671328,4.55998082 C0.431927071,4.70183112 0.338038874,4.88320392 0.280130427,5.10121104 C0.269017931,5.14463513 0.2616096,5.18560171 0.253682721,5.23335809 C0.244965592,5.26712955 0.226173111,5.33756067 0.226173111,5.42681565 L0.226173111,15.0871026 C0.226173111,16.584904 1.41365388,17.8037931 2.87299559,17.8037931 L15.0782888,17.8037931 C16.5381737,17.8037931 17.7261731,16.584904 17.7261731,15.0871026 L17.7261731,5.42681565 C17.7261731,5.34574385 17.7102946,5.28116512 17.6986635,5.23720898 Z M2.42708837,5.14800468 L4.50186449,1.56549278 L13.4472962,1.56549278 L15.5220723,5.14800468 L2.42708837,5.14800468 Z" id="形状"></path>
                        </g>
                        <polygon id="路径" fill="#FFFFFF" opacity="0.699999988" points="7.98563588 13.0679842 7.06364691 13.0679842 7.5257308 10.8934107 5.42564198 10.8934107 4.96330473 13.0679842 4.04757348 13.0679842 5.09165151 8.15576824 6.00766145 8.15576824 5.60501333 10.0488453 7.70538082 10.0488453 8.10775027 8.15576824 9.02973924 8.15576824 7.98563588 13.0679842"></polygon>
                        <path d="M13.8922228,9.59253777 C13.8284547,9.89242739 13.7017547,10.149653 13.51154,10.3643412 C13.3213253,10.5790295 13.0136579,10.7480642 12.7349989,10.8623754 C13.3460269,11.7754718 13.8116323,13.0679589 13.8116323,13.0679589 L12.7900771,13.0679589 C12.7900771,13.0679589 12.1825707,11.4772796 11.9701119,11.2752842 C11.9074332,11.2191926 11.8344433,11.1749578 11.75061,11.1426811 C11.66703,11.1103284 11.5745069,11.0940381 11.4730404,11.0940381 L10.4894622,11.0940381 L10.069713,13.0679589 L9.15398178,13.0679589 L10.1980598,8.15579356 L12.398551,8.15579356 C12.5301406,8.15579356 12.6546872,8.15850441 12.7721653,8.16392607 C12.8896434,8.16934776 13.0006357,8.18333264 13.1045343,8.20598208 C13.2087369,8.22870753 13.306403,8.26207363 13.3970261,8.30623241 C13.4881812,8.35046721 13.5706718,8.4114484 13.6447511,8.48909999 C13.7096326,8.55779829 13.7639521,8.63575124 13.805932,8.72040794 C13.848262,8.80618952 13.8795304,8.89699809 13.8989872,8.99065569 C13.9185204,9.08556036 13.9277424,9.18431595 13.9266529,9.28666909 C13.9253265,9.38951348 13.9137932,9.49197215 13.8922228,9.59253777 L13.8922228,9.59253777 Z" id="路径" fill="#FFFFFF" opacity="0.699999988"></path>
                        <path d="M12.257182,8.95815097 L10.9431349,8.95815097 L10.6688082,10.249346 L11.8889894,10.249346 C12.0528811,10.249346 12.1958715,10.2380213 12.3182392,10.2154225 C12.4408856,10.1927731 12.5448095,10.1555307 12.6302643,10.1037714 C12.7154657,10.0519362 12.7843767,9.98403852 12.836744,9.89987586 C12.8891113,9.81568789 12.9281778,9.71333472 12.9539687,9.59253777 C13.000357,9.37458133 12.9661802,9.21443919 12.8522237,9.11193403 C12.7382418,9.00942888 12.5396412,8.95815097 12.257182,8.95815097 L12.257182,8.95815097 Z" id="路径" fill="url(#linearGradient-2)"></path>
                    </g>
                </g>
            </g>
        </g>
    </g>
</svg>