<?xml version="1.0" encoding="UTF-8"?>
<svg width="20px" height="20px" viewBox="0 0 20 20" version="1.1" xmlns="http://www.w3.org/2000/svg" xmlns:xlink="http://www.w3.org/1999/xlink">
    <title>情报站</title>
    <g id="情报站" stroke="none" stroke-width="1" fill="none" fill-rule="evenodd">
        <path d="M16,2 C17.1045695,2 18,2.8954305 18,4 L18,14 C18,15.1045695 17.1045695,16 16,16 L13,16 L10,18 L7,16 L4,16 C2.8954305,16 2,15.1045695 2,14 L2,4 C2,2.8954305 2.8954305,2 4,2 L16,2 Z M16,3.5 L4,3.5 C3.75454011,3.5 3.55039163,3.67687516 3.50805567,3.91012437 L3.5,4 L3.5,14 C3.5,14.2454599 3.67687516,14.4496084 3.91012437,14.4919443 L4,14.5 L16,14.5 C16.2454599,14.5 16.4496084,14.3231248 16.4919443,14.0898756 L16.5,14 L16.5,4 C16.5,3.75454011 16.3231248,3.55039163 16.0898756,3.50805567 L16,3.5 Z M7,8 C7.55228475,8 8,8.44771525 8,9 C8,9.55228475 7.55228475,10 7,10 C6.44771525,10 6,9.55228475 6,9 C6,8.44771525 6.44771525,8 7,8 Z M10,8 C10.5522847,8 11,8.44771525 11,9 C11,9.55228475 10.5522847,10 10,10 C9.44771525,10 9,9.55228475 9,9 C9,8.44771525 9.44771525,8 10,8 Z M13,8 C13.5522847,8 14,8.44771525 14,9 C14,9.55228475 13.5522847,10 13,10 C12.4477153,10 12,9.55228475 12,9 C12,8.44771525 12.4477153,8 13,8 Z" id="形状结合" fill="#ADADAD" fill-rule="nonzero"></path>
    </g>
</svg>