<?xml version="1.0" encoding="UTF-8"?>
<svg width="54px" height="54px" viewBox="0 0 54 54" version="1.1" xmlns="http://www.w3.org/2000/svg" xmlns:xlink="http://www.w3.org/1999/xlink">
    <!-- Generator: Sketch 59.1 (86144) - https://sketch.com -->
    <title>群调@2x</title>
    <desc>Created with Sketch.</desc>
    <defs>
        <filter x="-40.0%" y="-41.4%" width="180.0%" height="182.8%" filterUnits="objectBoundingBox" id="filter-1">
            <feOffset dx="0" dy="2" in="SourceAlpha" result="shadowOffsetOuter1"></feOffset>
            <feGaussianBlur stdDeviation="2" in="shadowOffsetOuter1" result="shadowBlurOuter1"></feGaussianBlur>
            <feColorMatrix values="0 0 0 0 0.875792572   0 0 0 0 0.498924744   0 0 0 0 0.754656485  0 0 0 1 0" type="matrix" in="shadowBlurOuter1" result="shadowMatrixOuter1"></feColorMatrix>
            <feMerge>
                <feMergeNode in="shadowMatrixOuter1"></feMergeNode>
                <feMergeNode in="SourceGraphic"></feMergeNode>
            </feMerge>
        </filter>
        <linearGradient x1="50%" y1="0%" x2="50%" y2="99.8178843%" id="linearGradient-2">
            <stop stop-color="#FFFFFF" offset="0%"></stop>
            <stop stop-color="#FFCCEE" offset="100%"></stop>
        </linearGradient>
    </defs>
    <g id="蓝色" stroke="none" stroke-width="1" fill="none" fill-rule="evenodd">
        <g id="CCHR-左导-HR管理平台-人事架构事务" transform="translate(-85.000000, -317.000000)">
            <g id="1备份-6" transform="translate(70.000000, 299.000000)">
                <g id="1">
                    <g id="群调" transform="translate(15.000000, 18.000000)">
                        <circle id="椭圆形" fill="#EF86CD" opacity="0.800000012" cx="27" cy="27" r="27"></circle>
                        <g id="入职" transform="translate(12.000000, 12.253731)">
                            <g id="编组-14" filter="url(#filter-1)" transform="translate(0.012182, 0.024363)">
                                <path d="M22.4607069,13.60788 C23.4997921,13.60788 24.4590437,13.806237 25.370894,14.1966736 C26.2560172,14.5747415 27.0605326,15.1188479 27.7409564,15.7995842 C28.4215963,16.4880635 28.9673739,17.2978452 29.350104,18.1871102 L29.3488566,18.1871102 C29.7405405,19.0989605 29.93763,20.0632017 29.93763,21.0935551 C29.93763,22.1264033 29.7430354,23.0856549 29.3488566,23.9975052 C28.9698345,24.8884861 28.4240853,25.6988537 27.7409564,26.3850312 C26.3424104,27.7887764 24.4422293,28.5774885 22.4607069,28.5768131 C21.4557157,28.5818944 20.4602778,28.3815334 19.535551,27.9879418 C18.6504277,27.6098739 17.8459124,27.0657674 17.1654886,26.3850312 C16.4848486,25.6965519 15.939071,24.8867702 15.556341,23.9975052 C15.1623464,23.0799541 14.9623175,22.0908514 14.968815,21.0923077 C14.968815,20.0594594 15.1634096,19.0989605 15.5575884,18.1871102 C15.9381104,17.2969446 16.4836791,16.4868451 17.1654886,15.7995842 C18.5677719,14.392273 20.4740257,13.603277 22.4607069,13.60788 Z M7.76008318,16.5130977 C9.13970897,17.7081081 10.7862786,18.4428274 12.562578,18.5438669 C12.3493551,19.3764549 12.2433002,20.2328584 12.2469855,21.0923077 C12.2469855,22.5018711 12.5164241,23.816632 13.0490645,25.0540541 C13.379067,25.8216232 13.7990558,26.5472867 14.3002079,27.2158004 L1.24740127,27.2158004 C0.916569884,27.2158004 0.599288491,27.0843782 0.365355374,26.850445 C0.131422257,26.6165119 9.66338121e-13,26.2992305 9.66338121e-13,25.9683992 L9.66338121e-13,21.9742204 C0.000144268804,21.5406227 0.225440917,21.1382061 0.59501041,20.9114345 L7.76008318,16.5130977 Z M12.9891892,1.7408297e-13 C16.9446985,1.7408297e-13 19.793763,3.04116423 19.793763,7.24116423 C19.8027051,8.71348263 19.4991387,10.1709417 18.9031185,11.5172557 C17.5266817,12.0292518 16.2776161,12.8335905 15.2419959,13.8748441 C14.5984451,14.5195091 14.0446144,15.2478804 13.5954262,16.0403326 C13.3945411,16.0681849 13.1919956,16.0823548 12.9891892,16.0827443 C9.76091475,16.0827443 6.1858628,12.4777547 6.1858628,7.24116423 C6.1858628,3.04116423 9.03367985,1.7408297e-13 12.9891892,1.7408297e-13 Z" id="形状结合" fill="url(#linearGradient-2)" fill-rule="nonzero"></path>
                                <g id="编组-9" transform="translate(16.987818, 15.975637)" fill="#F29ED7">
                                    <path d="M1.72015734,3.66238505 L8.30594378,3.66238505 C8.85822853,3.66238505 9.30594378,4.1101003 9.30594378,4.66238505 C9.30594378,5.2146698 8.85822853,5.66238505 8.30594378,5.66238505 L1.72015734,5.66238505 C1.45494085,5.66238505 1.20058694,5.55702821 1.01305056,5.36949183 L0.305943777,4.66238505 L0.305943777,4.66238505 L1.01305056,3.95527827 C1.20058694,3.76774189 1.45494085,3.66238505 1.72015734,3.66238505 Z" id="矩形" transform="translate(4.805944, 4.662385) rotate(-45.000000) translate(-4.805944, -4.662385) "></path>
                                    <rect id="矩形" x="3.51724227" y="7.55147235" width="4.9694873" height="2" rx="1"></rect>
                                </g>
                            </g>
                        </g>
                    </g>
                </g>
            </g>
        </g>
    </g>
</svg>