<?xml version="1.0" encoding="UTF-8"?>
<svg width="18px" height="18px" viewBox="0 0 18 18" version="1.1" xmlns="http://www.w3.org/2000/svg" xmlns:xlink="http://www.w3.org/1999/xlink">
    <title>3列表操作@3x</title>
    <g id="A+max" stroke="none" stroke-width="1" fill="none" fill-rule="evenodd">
        <g id="A+MAX01-1房源列表" transform="translate(-1546.000000, -306.000000)" fill="#D8D8D8">
            <g id="编组" transform="translate(450.000000, 213.000000)">
                <g id="编组-13" transform="translate(0.000000, 42.000000)">
                    <g id="编组-14" transform="translate(20.000000, 50.000000)">
                        <g id="编组-16" transform="translate(96.000000, 1.000000)">
                            <g id="编组-22" transform="translate(928.000000, 0.000000)">
                                <path d="M65,0 C67.7614237,-5.07265313e-16 70,2.23857625 70,5 L70,13 C70,15.7614237 67.7614237,18 65,18 L57,18 C54.2385763,18 52,15.7614237 52,13 L52,5 C52,2.23857625 54.2385763,5.07265313e-16 57,0 L65,0 Z M62.6946851,8.36383929 L62.2145792,9.16294643 L62.2223949,9.16294643 L65.0516697,12.1350446 L65.0315723,12.4430804 L64.5190872,12.4631696 L61.8651068,9.66852679 C61.4285455,10.1819196 60.9093613,10.4553571 60.9093613,10.4553571 L60.9707702,11.7053571 L61.5658781,12.3616071 L63.1658587,12.3616071 L63.1457612,13.8772321 L64.5603987,14 C64.5603987,14 64.5643995,13.9960007 64.5751513,13.9853516 L64.6304089,13.9308036 C64.7384224,13.8244048 64.9984487,13.5691964 65.5864853,12.9955357 C66.4674237,12.1350446 65.6668751,11.4587054 65.6668751,11.4587054 L62.6946851,8.36383929 Z M59.2133595,4 C57.4369679,4 56,5.4375 56,7.21316964 C56,8.98660714 57.4380844,10.4263393 59.214476,10.4263393 C60.9886346,10.4252232 62.4278355,8.98772321 62.4278355,7.21316964 C62.4278355,5.43861607 60.9897511,4 59.2133595,4 Z M58.325722,5.35825893 C58.8884507,5.35825893 59.3451095,5.81473214 59.3451095,6.37723214 C59.3451095,6.93973214 58.8884507,7.39620536 58.325722,7.39620536 C57.7629933,7.39620536 57.3063345,6.93973214 57.3063345,6.37723214 C57.3063345,5.81473214 57.7629933,5.35825893 58.325722,5.35825893 Z" id="3列表操作"></path>
                            </g>
                        </g>
                    </g>
                </g>
            </g>
        </g>
    </g>
</svg>