<?xml version="1.0" standalone="no"?><!DOCTYPE svg PUBLIC "-//W3C//DTD SVG 1.1//EN" "http://www.w3.org/Graphics/SVG/1.1/DTD/svg11.dtd"><svg class="icon" width="200px" height="200.00px" viewBox="0 0 1024 1024" version="1.1" xmlns="http://www.w3.org/2000/svg"><path d="M95.524571 0.950857H923.794286c51.931429 0 94.573714 42.715429 94.573714 94.573714V923.794286c0 51.931429-42.715429 94.573714-94.573714 94.573714H95.524571A94.939429 94.939429 0 0 1 0.950857 923.794286V620.617143c0-15.725714 13.165714-28.891429 28.891429-28.891429h370.834285c15.798857 0 28.964571 13.165714 28.964572 28.891429v101.083428c0 15.798857 10.459429 21.650286 23.625143 11.849143l35.401143-25.6 247.515428-180.516571c0.658286-0.731429 1.316571-0.731429 1.974857-1.974857 11.117714-9.216 10.459429-23.625143-1.974857-32.841143L453.266286 285.842286c-13.165714-9.801143-23.625143-3.949714-23.625143 11.849143v100.425142c0 15.725714-13.165714 28.891429-28.891429 28.891429H29.915429a28.306286 28.306286 0 0 1-28.964572-28.891429V95.524571C0.950857 43.593143 43.666286 0.950857 95.524571 0.950857z" /></svg>