<?xml version="1.0" encoding="UTF-8"?>
<svg width="275px" height="46px" viewBox="0 0 275 46" version="1.1" xmlns="http://www.w3.org/2000/svg" xmlns:xlink="http://www.w3.org/1999/xlink">
    <!-- Generator: Sketch 59.1 (86144) - https://sketch.com -->
    <title>编组 2@2x</title>
    <desc>Created with Sketch.</desc>
    <g id="蓝色" stroke="none" stroke-width="1" fill="none" fill-rule="evenodd">
        <g id="CCHR登录1366" transform="translate(-460.000000, -7.000000)" fill-rule="nonzero">
            <g id="顶部">
                <g id="编组-2" transform="translate(460.000000, 7.000000)">
                    <path d="M57.890625,26.8203125 L57.890625,15.390625 L65.0234375,15.390625 L65.0234375,12.2109375 L68.9765625,12.2109375 L68.9765625,15.390625 L76.109375,15.390625 L76.109375,22.78125 C76.2239589,25.6458477 75.0494915,26.9921884 72.5859375,26.8203125 L68.9765625,26.8203125 L68.9765625,32.234375 L65.0234375,32.234375 L65.0234375,26.8203125 L57.890625,26.8203125 Z M61.5,17.8828125 L61.5,24.328125 L65.0234375,24.328125 L65.0234375,17.8828125 L61.5,17.8828125 Z M72.5,17.8828125 L68.9765625,17.8828125 L68.9765625,24.328125 L71.296875,24.328125 C72.1562543,24.328125 72.557292,23.8411507 72.5,22.8671875 L72.5,17.8828125 Z M92.1026875,15.734375 C92.1026875,15.8489589 92.074042,15.9635411 92.01675,16.078125 C92.01675,16.4791687 91.9594589,16.7656241 91.844875,16.9375 L97.7745625,16.9375 L97.7745625,22.0078125 C97.8891464,24.4140745 96.8292612,25.5598964 94.594875,25.4453125 L93.1339375,25.4453125 L93.1339375,29.0546875 C93.1912295,31.0026139 92.2459264,31.947917 90.298,31.890625 L87.89175,31.890625 L87.89175,29.7421875 L88.6651875,29.7421875 C89.3526909,29.7994795 89.667792,29.4557329 89.6105,28.7109375 L89.6105,25.4453125 L84.798,25.4453125 L84.798,16.9375 L88.1495625,16.9375 C88.2641464,16.5937483 88.350083,16.1927106 88.407375,15.734375 L92.1026875,15.734375 Z M98.9776875,15.4765625 L83.8526875,15.4765625 L83.8526875,25.2734375 C84.0245634,28.4244949 82.4777038,30.7447842 79.2120625,32.234375 L79.2120625,29.9140625 C79.8995659,29.0546832 80.214667,27.736988 80.157375,25.9609375 L80.157375,12.984375 L98.9776875,12.984375 L98.9776875,15.4765625 Z M85.9151875,26.1328125 L89.1808125,26.1328125 C88.607893,28.8828263 86.774578,30.6015591 83.6808125,31.2890625 L83.6808125,29.2265625 C84.8839435,28.596351 85.6287277,27.5651113 85.9151875,26.1328125 Z M96.657375,26.1328125 C97.0011267,27.4505274 97.7459109,28.4817671 98.89175,29.2265625 L98.89175,31.2890625 C95.7406926,30.5442671 93.9646687,28.8255343 93.563625,26.1328125 L96.657375,26.1328125 Z M93.3058125,23.2109375 C94.0506079,23.2682295 94.3943545,22.9244829 94.3370625,22.1796875 L88.2355,22.1796875 L88.2355,23.2109375 L93.3058125,23.2109375 Z M94.3370625,19.171875 L88.2355,19.171875 L88.2355,20.203125 L94.3370625,20.203125 L94.3370625,19.171875 Z M120.728813,32.0625 C115.629829,29.598946 112.335591,26.6198091 110.846,23.125 C109.413701,26.6198091 106.119463,29.598946 100.963188,32.0625 L100.963188,29.65625 C106.291339,25.5312294 108.898084,20.5182587 108.7835,14.6171875 L108.7835,12.3828125 L112.9085,12.3828125 L112.9085,14.6171875 C112.793916,20.5182587 115.400661,25.5312294 120.728813,29.65625 L120.728813,32.0625 Z M128.729938,14.9609375 L128.729938,12.2109375 L132.769,12.2109375 L132.769,14.9609375 L141.878375,14.9609375 L141.878375,27.8515625 C141.935667,30.4869923 140.646617,31.776042 138.011188,31.71875 L134.48775,31.71875 L134.48775,29.3125 L136.55025,29.3125 C137.409629,29.3125 137.839313,28.8255257 137.839313,27.8515625 L137.839313,17.625 L132.597125,17.625 C132.539833,24.4427424 129.302886,29.3124854 122.886187,32.234375 L122.886187,29.5703125 C126.610164,27.1067585 128.529416,23.1250275 128.644,17.625 L123.315875,17.625 L123.315875,14.9609375 L128.729938,14.9609375 Z M162.59825,28.109375 L158.902938,28.109375 L158.902938,24.15625 L150.567,24.15625 L150.567,28.109375 L146.957625,28.109375 L146.957625,21.921875 L162.59825,21.921875 L162.59825,28.109375 Z M154.863875,29.5703125 C152.514905,31.1171952 149.163376,31.9192705 144.809188,31.9765625 L144.809188,30 C150.481091,29.3697885 153.145127,27.8515745 152.801375,25.4453125 L152.801375,24.9296875 L156.7545,24.9296875 L156.7545,25.4453125 C156.410748,27.5651148 158.960202,29.0833287 164.402938,30 L164.402938,31.9765625 C160.277917,31.8619786 157.098261,31.0599033 154.863875,29.5703125 Z M157.09825,19.4296875 C155.551367,20.9192783 153.116496,21.692708 149.793563,21.75 L149.793563,19.9453125 C153.345664,19.2578091 155.150333,18.0260505 155.207625,16.25 L155.207625,15.8203125 L158.988875,15.8203125 L158.988875,16.3359375 C159.103459,17.9401122 160.994065,19.1145796 164.66075,19.859375 L164.66075,21.75 C161.051357,21.5781241 158.530549,20.8046944 157.09825,19.4296875 Z M150.137313,15.4765625 C151.569611,14.6171832 152.400332,13.5286524 152.6295,12.2109375 L156.067,12.2109375 C156.009708,12.5546892 155.923771,12.8697902 155.809188,13.15625 L164.145125,13.15625 L164.145125,17.109375 L160.8795,17.109375 L160.8795,15.21875 L154.520125,15.21875 C153.546162,16.3072971 152.085239,16.9661447 150.137313,17.1953125 L150.137313,15.4765625 Z M148.16075,21.6640625 L144.551375,21.6640625 C145.525338,20.1744717 146.212831,18.4843845 146.613875,16.59375 L149.621688,16.59375 C149.507104,18.2552166 149.020129,19.9453039 148.16075,21.6640625 Z M148.332625,12.3828125 C148.905545,13.2421918 149.363873,14.3593681 149.707625,15.734375 L146.270125,15.734375 C146.040957,14.4166601 145.63992,13.2994838 145.067,12.3828125 L148.332625,12.3828125 Z M181.77125,15.734375 C181.713958,16.1927106 181.628021,16.5937483 181.513438,16.9375 L185.89625,16.9375 L185.89625,22.3515625 C185.953542,24.4713648 185.008239,25.5026045 183.060313,25.4453125 L182.45875,25.4453125 L182.45875,29.2265625 C182.516042,31.1744889 181.542093,32.119792 179.536875,32.0625 L177.64625,32.0625 L177.64625,29.9140625 L178.247813,29.9140625 C178.935316,29.9713545 179.250417,29.6276079 179.193125,28.8828125 L179.193125,25.4453125 L175.669688,25.4453125 L175.669688,16.9375 L177.99,16.9375 C178.104584,16.5937483 178.190521,16.1927106 178.247813,15.734375 L181.77125,15.734375 Z M186.58375,15.4765625 L175.068125,15.4765625 L175.068125,25.2734375 C175.240001,28.4244949 173.836369,30.7447842 170.857188,32.234375 L170.857188,29.9140625 C171.544691,28.7682234 171.859792,27.4505283 171.8025,25.9609375 L171.8025,12.984375 L186.58375,12.984375 L186.58375,15.4765625 Z M169.911875,31.71875 L166.474375,31.71875 C167.620214,28.7395684 168.250416,25.8750138 168.365,23.125 L171.286875,23.125 C171.114999,26.1614735 170.65667,29.0260282 169.911875,31.71875 Z M169.74,12.7265625 C170.427503,14.1015694 170.857187,15.5052012 171.029063,16.9375 L167.849375,16.9375 C167.734791,15.9062448 167.362399,14.502613 166.732188,12.7265625 L169.74,12.7265625 Z M170.08375,17.8828125 C170.542086,18.8567757 170.943123,20.231762 171.286875,22.0078125 L168.107188,22.0078125 C167.820728,20.4036378 167.448336,19.0286516 166.99,17.8828125 L170.08375,17.8828125 Z M176.27125,26.046875 L178.849375,26.046875 C178.792083,28.6823048 177.388451,30.4296832 174.638438,31.2890625 L174.638438,29.484375 C175.555109,28.6249957 176.099374,27.4791738 176.27125,26.046875 Z M185.20875,26.046875 C185.380626,27.5937577 185.8676,28.7109341 186.669688,29.3984375 L186.669688,31.2890625 C184.034258,30.4296832 182.716563,28.6823048 182.716563,26.046875 L185.20875,26.046875 Z M181.857188,23.2109375 C182.544691,23.2109375 182.859792,22.8958365 182.8025,22.265625 L182.8025,22.1796875 L178.763438,22.1796875 L178.763438,23.2109375 L181.857188,23.2109375 Z M182.8025,19.171875 L178.763438,19.171875 L178.763438,20.203125 L182.8025,20.203125 L182.8025,19.171875 Z M188.913,17.1953125 L188.913,15.4765625 C190.058839,14.846351 190.746332,13.8151113 190.9755,12.3828125 L194.241125,12.3828125 C194.183833,12.7265642 194.097896,12.9843741 193.983312,13.15625 L198.709875,13.15625 L198.709875,15.3046875 L196.389562,15.3046875 C196.389562,15.4192714 196.446854,15.6197902 196.561437,15.90625 C196.618729,16.2500017 196.676021,16.5078116 196.733312,16.6796875 L198.366125,16.6796875 L198.366125,15.5625 C199.454672,14.9895805 200.056229,13.9296952 200.170812,12.3828125 L203.436437,12.3828125 C203.436437,12.4973964 203.407792,12.6119786 203.3505,12.7265625 C203.3505,12.9557303 203.321854,13.098958 203.264562,13.15625 L208.420812,13.15625 L208.420812,15.3046875 L205.928625,15.3046875 C205.928625,15.4765634 205.985916,15.7057277 206.1005,15.9921875 C206.157792,16.3932312 206.215083,16.7083322 206.272375,16.9375 L203.436437,16.9375 C203.379146,16.3645805 203.264563,15.8203151 203.092687,15.3046875 L202.31925,15.3046875 C201.918206,15.934899 201.31665,16.4218733 200.514562,16.765625 L200.514562,17.5390625 L208.163,17.5390625 L208.163,20.8046875 L206.1005,20.8046875 L206.1005,22.8671875 C206.157792,24.757822 205.327071,25.6744795 203.608312,25.6171875 L194.413,25.6171875 L194.413,26.4765625 L206.873937,26.4765625 L206.873937,28.96875 C206.931229,30.8593845 206.014572,31.776042 204.123937,31.71875 L190.803625,31.71875 L190.803625,20.8046875 L188.998937,20.8046875 L188.998937,17.5390625 L196.4755,17.5390625 L196.4755,16.9375 L193.897375,16.9375 C193.840083,16.7083322 193.782792,16.3932312 193.7255,15.9921875 C193.610916,15.7057277 193.553625,15.4765634 193.553625,15.3046875 L192.866125,15.3046875 C192.12133,16.2213588 190.803634,16.8515608 188.913,17.1953125 Z M203.3505,28.453125 L194.413,28.453125 L194.413,29.7421875 L202.577062,29.7421875 C203.149982,29.7994795 203.407792,29.5703151 203.3505,29.0546875 L203.3505,28.453125 Z M192.608312,19.6875 L192.608312,20.546875 L204.553625,20.546875 L204.553625,19.6875 L192.608312,19.6875 Z M202.577062,22.5234375 L194.413,22.5234375 L194.413,23.640625 L201.889562,23.640625 C202.40519,23.640625 202.634354,23.4114606 202.577062,22.953125 L202.577062,22.5234375 Z M217.539125,27.5078125 L217.539125,25.1015625 L221.921937,25.1015625 L221.921937,23.640625 L217.539125,23.640625 L217.539125,12.8984375 L229.828187,12.8984375 L229.828187,20.6328125 C229.885479,22.6953228 228.882885,23.697917 226.820375,23.640625 L225.359437,23.640625 L225.359437,25.1015625 L229.828187,25.1015625 L229.828187,27.5078125 L225.359437,27.5078125 L225.359437,29.140625 L230.601625,29.140625 L230.601625,31.375 L216.593812,31.375 L216.593812,29.484375 C214.703178,30.0000026 212.69799,30.4010402 210.578187,30.6875 L210.578187,27.9375 C210.807355,27.9375 211.122456,27.9088545 211.5235,27.8515625 L212.296937,27.8515625 L212.296937,22.265625 L210.836,22.265625 L210.836,19.859375 L212.296937,19.859375 L212.296937,15.5625 L210.750062,15.5625 L210.750062,13.15625 L217.0235,13.15625 L217.0235,15.5625 L215.6485,15.5625 L215.6485,19.859375 L216.937562,19.859375 L216.937562,22.265625 L215.6485,22.265625 L215.6485,27.25 C215.820376,27.192708 216.078187,27.135417 216.421937,27.078125 C216.708397,26.9635411 216.937562,26.90625 217.109437,26.90625 L217.109437,29.140625 L221.921937,29.140625 L221.921937,27.5078125 L217.539125,27.5078125 Z M220.632875,19.4296875 L220.632875,21.234375 L221.921937,21.234375 L221.921937,19.4296875 L220.632875,19.4296875 Z M220.632875,15.390625 L220.632875,17.0234375 L221.921937,17.0234375 L221.921937,15.390625 L220.632875,15.390625 Z M226.734437,15.390625 L225.359437,15.390625 L225.359437,17.0234375 L226.734437,17.0234375 L226.734437,15.390625 Z M225.531312,21.234375 C226.3334,21.234375 226.734437,20.8619829 226.734437,20.1171875 L226.734437,19.4296875 L225.359437,19.4296875 L225.359437,21.234375 L225.531312,21.234375 Z M233.274625,13.2421875 L245.048062,13.2421875 C247.397033,13.2421875 249.631385,13.0130231 251.751187,12.5546875 L251.751187,15.21875 C249.631385,15.7343776 247.597551,15.963542 245.649625,15.90625 L244.618375,15.90625 C243.128784,16.8229213 241.61057,17.5390599 240.063687,18.0546875 C241.839738,18.0546875 243.272015,17.9973964 244.360562,17.8828125 C244.87619,17.5963527 245.39181,17.2812517 245.907437,16.9375 L251.407437,16.9375 C248.084504,19.401054 244.360583,21.3489512 240.235562,22.78125 C242.8137,22.78125 245.277217,22.6953134 247.626187,22.5234375 C247.454312,21.893226 247.196502,21.2057329 246.85275,20.4609375 L249.9465,20.4609375 C250.863171,22.351572 251.464728,24.0989503 251.751187,25.703125 L248.399625,25.703125 L248.399625,25.2734375 C248.342333,25.1015616 248.313687,24.9869795 248.313687,24.9296875 L248.012375,24.9339313 C247.621237,24.9438335 247.091469,24.9710646 246.423062,25.015625 L245.879851,25.0198688 C245.280764,25.029771 244.802983,25.0570021 244.4465,25.1015625 L244.4465,29.140625 C244.4465,31.1458434 243.443906,32.119792 241.438687,32.0625 L239.032437,32.0625 L239.032437,29.7421875 L239.805875,29.7421875 C240.378795,29.7421875 240.66525,29.455732 240.66525,28.8828125 L240.66525,25.1875 L238.60275,25.1875 L237.274021,25.2180105 C235.863764,25.2417409 234.673869,25.2315707 233.704312,25.1875 L233.704312,22.6953125 C235.709531,22.065101 237.743365,21.2630257 239.805875,20.2890625 L238.668527,20.3230132 C237.306967,20.3576712 235.824112,20.375 234.219937,20.375 L234.219937,18.0546875 C235.881404,17.481768 237.5142,16.7656293 239.118375,15.90625 L233.274625,15.90625 L233.274625,13.2421875 Z M248.743375,25.875 C249.316295,27.5937586 250.462116,28.8255171 252.180875,29.5703125 L252.180875,31.4609375 C248.456898,30.888018 246.107963,29.0260574 245.134,25.875 L248.743375,25.875 Z M236.024625,25.875 L239.634,25.875 C238.660037,29.0260574 236.311102,30.888018 232.587125,31.4609375 L232.587125,29.5703125 C234.305884,28.8255171 235.451705,27.5937586 236.024625,25.875 Z M261.21325,16.25 L261.21325,13.84375 L265.767938,13.84375 L265.767938,12.3828125 L269.549188,12.3828125 L269.549188,13.84375 L274.017938,13.84375 L274.017938,16.25 L268.432,16.25 C267.515329,17.9687586 266.426798,19.2864537 265.166375,20.203125 L266.427243,20.1970826 C268.161213,20.1796266 269.516956,20.1243494 270.4945,20.03125 C270.265332,19.2864546 269.950231,18.4843793 269.549188,17.625 L272.385125,17.625 C273.301796,19.4010505 273.931998,21.2343655 274.27575,23.125 L271.353875,23.125 C271.239291,22.7812483 271.182,22.5234384 271.182,22.3515625 L270.666375,22.3515625 L270.666375,28.5390625 C270.666375,29.111982 270.924188,29.3984375 271.439813,29.3984375 C271.898148,29.3984375 272.127313,29.111982 272.127313,28.5390625 L272.127313,27.59375 L274.361688,27.59375 L274.361688,29.3984375 C274.361688,30.8880283 273.559612,31.6328125 271.955438,31.6328125 L270.15075,31.6328125 C268.317407,31.6901045 267.429396,30.8593836 267.486688,29.140625 L267.486688,22.6953125 C267.372104,22.6953125 267.20023,22.723958 266.971063,22.78125 L266.541375,22.78125 L266.541375,24.5 C266.713251,27.9948091 264.793999,30.5442628 260.783563,32.1484375 L260.783563,29.9140625 C260.955438,29.7994786 261.127312,29.6562509 261.299188,29.484375 C259.293969,30.0572945 257.002325,30.34375 254.424188,30.34375 L254.424188,27.9375 C257.059617,27.994792 259.408552,27.7656276 261.471063,27.25 L261.471063,29.3125 C262.731485,28.1666609 263.333042,26.5052192 263.27575,24.328125 L263.27575,22.8671875 L261.557,22.8671875 L261.557,20.203125 C262.760131,19.0572859 263.73408,17.7395908 264.478875,16.25 L261.21325,16.25 Z M261.814813,16.421875 C261.184601,19.3437646 259.809615,21.8645727 257.689813,23.984375 C258.835652,23.984375 260.010119,23.8697928 261.21325,23.640625 L261.21325,25.9609375 C259.379908,26.4192731 257.202846,26.619792 254.682,26.5625 L254.682,23.984375 C255.713255,22.9531198 256.543976,21.8645891 257.174188,20.71875 C256.314808,20.8333339 255.369505,20.8619795 254.33825,20.8046875 L254.33825,18.3984375 C255.426797,16.6796789 256.142936,14.6744906 256.486688,12.3828125 L259.666375,12.3828125 C259.265331,14.5599067 258.377319,16.565095 257.002313,18.3984375 C257.403356,18.3984375 257.804394,18.369792 258.205438,18.3125 C258.434605,17.7395805 258.635124,17.1093784 258.807,16.421875 L261.814813,16.421875 Z" id="中原人力资源管理系统" fill="#333333"></path>
                    <g id="Logo" fill="#3D7EFF">
                        <path d="M0,0 C3.3461504,-6.14677857e-16 6.05874126,2.71259086 6.05874126,6.05874126 L6.05874126,39.434965 C6.05874126,42.7811154 3.3461504,45.4937063 0,45.4937063 L0,45.4937063 L0,45.4937063 L0,0 Z" id="矩形"></path>
                        <path d="M37.2027972,22.6407581 C37.1850972,22.6406257 37.1673815,22.6405594 37.1496503,22.6405594 C33.3045126,22.6405594 30.1874126,25.7576595 30.1874126,29.6027972 L30.1874126,36.2736345 C30.1874126,40.2932688 27.8098051,43.9323208 24.1286713,45.5468531 L24.1286713,45.5468531 L24.1286713,45.5468531 L24.1286713,29.2839161 C24.1286713,22.3861499 29.7204156,16.7944056 36.6181818,16.7944056 C36.8141404,16.7944056 37.009045,16.7989185 37.2027972,16.8078461 L37.2027972,22.6407581 Z" id="路径"></path>
                        <circle id="椭圆形" cx="22.6405594" cy="14.7748252" r="5.73986014"></circle>
                        <path d="M21.365035,22.6407581 C21.347335,22.6406257 21.3296193,22.6405594 21.3118881,22.6405594 C17.4667504,22.6405594 14.3496503,25.7576595 14.3496503,29.6027972 L14.3496503,36.2736345 C14.3496503,40.2932688 11.9720429,43.9323208 8.29090909,45.5468531 L8.29090909,45.5468531 L8.29090909,45.5468531 L8.29090909,29.2839161 C8.29090909,22.3861499 13.8826534,16.7944056 20.7804196,16.7944056 C20.9763782,16.7944056 21.1712827,16.7989185 21.365035,16.8078461 L21.365035,22.6407581 Z" id="路径-copy" transform="translate(14.827972, 31.170629) scale(-1, 1) translate(-14.827972, -31.170629) "></path>
                    </g>
                </g>
            </g>
        </g>
    </g>
</svg>