<?xml version="1.0" encoding="utf-8"?>
<!-- Generator: Adobe Illustrator 24.1.0, SVG Export Plug-In . SVG Version: 6.00 Build 0)  -->
<svg version="1.1" id="图层_1" xmlns="http://www.w3.org/2000/svg" xmlns:xlink="http://www.w3.org/1999/xlink" x="0px" y="0px"
	 viewBox="0 0 67 20" style="enable-background:new 0 0 67 20;" xml:space="preserve">
<style type="text/css">
	.st0{fill:#FFFFFF;}
</style>
<g id="A_x2B_max">
	<g id="A_x2B_MAX02-1房源列表" transform="translate(-20.000000, -20.000000)">
		<g id="max-红色背景logo" transform="translate(20.000000, 20.000000)">
			<path id="路径" class="st0" d="M0,0c1.8,0,3.6,0,5.4,0C5.7,0,5.9,0.1,6,0.4c1.4,2.3,2.8,4.5,4.1,6.8c0.1,0.2,0.2,0.3,0.4,0.6
				c0.2-0.2,0.3-0.4,0.4-0.6c1.4-2.3,2.7-4.5,4.1-6.8C15.2,0.1,15.4,0,15.8,0c1.6,0,3.2,0,4.8,0c0.2,0,0.3,0,0.5,0v19.9h-5.3V8.7
				l-0.2-0.1l-5,7.8c-1.7-2.6-3.3-5.2-5-7.7l-0.1,0V20H0V0z"/>
			<path id="形状" class="st0" d="M45.2,20c-1.9,0-3.7,0-5.5,0c-0.2,0-0.4-0.2-0.5-0.4c-0.4-0.9-0.8-1.8-1.1-2.8
				c-0.1-0.3-0.3-0.4-0.6-0.4c-2.3,0-4.6,0-6.9,0c-0.3,0-0.5,0.1-0.6,0.4c-0.4,0.9-0.7,1.9-1.1,2.8c-0.1,0.2-0.2,0.3-0.4,0.3
				c-1.8,0-3.5,0-5.4,0c0.3-0.8,0.7-1.6,1-2.3C26.6,12,29,6.2,31.4,0.5C31.5,0.1,31.7,0,32.2,0c1.4,0,2.8,0,4.2,0
				c0.4,0,0.5,0.1,0.6,0.4c2.7,6.4,5.4,12.8,8.1,19.2C45.1,19.7,45.1,19.8,45.2,20z M36.4,12.2c-0.7-1.9-1.5-3.7-2.2-5.5l-0.2,0
				l-2.2,5.6L36.4,12.2z"/>
			<path id="路径_1_" class="st0" d="M47.1,20c0.8-1.2,1.5-2.3,2.3-3.3c3.7-5.4,7.3-10.8,11-16.1c0.2-0.3,0.6-0.5,1-0.5
				c1.6,0,3.2,0,4.8,0h0.7c-0.2,0.3-0.3,0.4-0.4,0.6c-4.3,6.3-8.6,12.6-12.9,18.9c-0.2,0.3-0.5,0.5-0.8,0.4C50.9,20,49.1,20,47.1,20
				z"/>
			<path id="路径_2_" class="st0" d="M61.7,12l5.3,7.9c-0.1,0-0.2,0-0.3,0.1c-1.4,0-2.8,0-4.3,0c-0.9,0-1.7-0.5-2.2-1.2
				c-0.5-0.7-1-1.5-1.6-2.3C59.6,15,60.6,13.6,61.7,12z"/>
			<path id="路径_3_" class="st0" d="M52.6,7.6l-5.1-7.5c0.1,0,0.2-0.1,0.4-0.1c1.4,0,2.8,0,4.2,0c1,0,1.8,0.5,2.4,1.3
				c0.4,0.5,0.7,1,1,1.5c0.1,0.1,0.1,0.4,0.1,0.5C54.5,4.7,53.6,6.1,52.6,7.6z"/>
		</g>
	</g>
</g>
</svg>
