<?xml version="1.0" encoding="UTF-8"?>
<svg width="80px" height="24px" viewBox="0 0 80 24" version="1.1" xmlns="http://www.w3.org/2000/svg" xmlns:xlink="http://www.w3.org/1999/xlink">
    <title>max白色背景logo</title>
    <g id="A+max" stroke="none" stroke-width="1" fill="none" fill-rule="evenodd">
        <g id="A+MAX01-1房源列表" transform="translate(-20.000000, -28.000000)" fill-rule="nonzero">
            <g id="顶导" transform="translate(20.000000, 20.000000)">
                <g id="max白色背景logo" transform="translate(0.000000, 8.000000)">
                    <path d="M0,0.0197184875 C2.130927,0.0197184875 4.26185401,0.0197184875 6.39278101,0.00302943825 C6.80009107,0.00302943825 7.01699195,0.143217452 7.22064698,0.490349675 C8.85816586,3.21734032 10.5105863,5.93264862 12.1580396,8.64962584 C12.2838752,8.85823895 12.421301,9.05850754 12.60012,9.33387685 C12.785562,9.0434874 12.9312664,8.83320538 13.0521349,8.62793007 C14.6896537,5.92764191 16.3321398,3.23236046 17.9531014,0.522058869 C18.1700023,0.156568691 18.3968376,0.00136053333 18.8306393,0.00136053333 C20.7330753,0.0263941072 22.6388228,0.0113739629 24.539603,0.0130428678 C24.7233893,0.0130428678 24.9055198,0.029731917 25.1306993,0.0397453465 L25.1306993,23.9334571 L18.7478527,23.9334571 L18.7478527,10.3919626 L18.5309518,10.3151929 L12.5305793,19.6477093 C10.5172093,16.5235193 8.54026533,13.4510653 6.5633214,10.3836181 L6.3977482,10.4420297 L6.3977482,23.9968755 L0,23.9968755 L0,0.0197184875 Z" id="路径" fill="#DB5055"></path>
                    <path d="M53.9768611,23.9685041 C51.7399673,23.9685041 49.5908272,23.9785175 47.4416872,23.9484773 C47.2562452,23.9484773 46.9896724,23.7014793 46.9035743,23.5078864 C46.423412,22.4047402 45.973053,21.2899117 45.5442184,20.1700765 C45.4101041,19.8179376 45.2230064,19.7094588 44.8587454,19.7111277 C42.1278915,19.7267041 39.3975895,19.7267041 36.6678395,19.7111277 C36.2737753,19.7111277 36.0783989,19.8362955 35.9393174,20.2117991 C35.5171058,21.33831 35.0750254,22.4564763 34.6047975,23.5629602 C34.5084581,23.7658149 34.3255705,23.9132891 34.1080779,23.9634974 C32.0003311,23.9901999 29.8925844,23.9801864 27.6755593,23.9801864 C28.0845251,23.005546 28.4636877,22.0976617 28.8445061,21.1914463 C31.7144414,14.3444857 34.5843768,7.49585623 37.4543121,0.645557833 C37.6380984,0.156568691 37.8798353,-0.0086528962 38.3931122,0.00136053333 C40.0687129,0.0364075367 41.7443136,0.0330697268 43.4199143,0.00136053333 C43.8487489,0.00136053333 44.020945,0.148224166 44.1765838,0.522058869 C47.3842885,8.19902151 50.5986161,15.8687522 53.8195666,23.531251 C53.8659271,23.6447366 53.9023532,23.7615599 53.9768611,23.9685041 Z M43.4728977,14.5992719 C42.582114,12.314541 41.7310677,10.1266067 40.8783658,7.94034125 L40.6945795,7.93032782 L38.0636215,14.6059475 L43.4728977,14.5992719 Z" id="形状" fill="#DB5055"></path>
                    <path d="M56.2948859,23.9851932 C57.2518989,22.5682929 58.1261254,21.2732227 59.0020076,19.9798213 C63.3643093,13.5267223 67.7244034,7.07362329 72.0822899,0.620524259 C72.3151691,0.203691164 72.7685196,-0.0371906373 73.2413022,0.00469834317 C75.1652627,0.0380764416 77.0892233,0.0180495825 79.011528,0.0180495825 L79.7880663,0.0180495825 C79.5827556,0.340148232 79.4569199,0.548761348 79.3211499,0.750698843 C74.1916924,8.32418938 69.0677539,15.9010177 63.9493346,23.4811839 C63.7611411,23.8261004 63.3899166,24.0278822 63.0006002,23.9968755 C60.8100669,23.9718419 58.6211892,23.9851932 56.2948859,23.9851932 Z" id="路径" fill="#DB5055"></path>
                    <path d="M73.6237763,14.4524082 L80,23.8817211 C79.8677318,23.9155469 79.7332947,23.9400831 79.5976571,23.9551529 C77.9005319,23.9551529 76.2034067,23.9918688 74.5095929,23.9434705 C73.4561476,23.9142846 72.4762449,23.392365 71.8587661,22.531577 C71.2080634,21.6670842 70.6269015,20.7491865 69.9977234,19.8312888 C71.1964733,18.0472294 72.3819774,16.2882037 73.6237763,14.4524082 Z" id="路径" fill="#457B9D"></path>
                    <path d="M62.7605191,9.11691921 L56.6856386,0.133204022 C56.8260335,0.0977485015 56.9688042,0.0726485084 57.1128174,0.0581033007 C58.7685494,0.0581033007 60.4242813,0.0364075367 62.0800132,0.0581033007 C63.2704845,0.0781301597 64.2159074,0.640551118 64.9245607,1.59516473 C65.3600182,2.18095036 65.7656725,2.79176956 66.1531138,3.40926438 C66.2441791,3.55445911 66.300474,3.83984185 66.2226546,3.9583341 C65.0984126,5.67563727 63.9509903,7.35288671 62.7605191,9.11691921 Z" id="路径" fill="#457B9D"></path>
                </g>
            </g>
        </g>
    </g>
</svg>