<?xml version="1.0" encoding="UTF-8"?>
<svg width="14px" height="9px" viewBox="0 0 14 9" version="1.1" xmlns="http://www.w3.org/2000/svg" xmlns:xlink="http://www.w3.org/1999/xlink">
    <!-- Generator: Sketch 59.1 (86144) - https://sketch.com -->
    <title>通知@2x</title>
    <desc>Created with Sketch.</desc>
    <g id="蓝色" stroke="none" stroke-width="1" fill="none" fill-rule="evenodd">
        <g id="CCHR首页左导展开" transform="translate(-186.000000, -345.000000)" fill-rule="nonzero">
            <g id="个人信息" transform="translate(170.000000, 134.000000)">
                <g id="通知" transform="translate(0.000000, 202.000000)">
                    <g transform="translate(16.000000, 6.000000)">
                        <rect id="矩形" fill="#000000" opacity="0" x="0" y="0" width="14" height="14"></rect>
                        <path d="M8.0490369,3.07806393 C7.8805217,2.96893378 7.66823642,2.9524669 7.48490792,3.03430467 L3.67874127,4.73449517 L1.36631623,4.73449517 C1.0389902,4.73449517 0.773640014,4.99984535 0.773640014,5.32717138 L0.773640014,8.86949834 C0.773640014,9.02668585 0.836082507,9.17743536 0.947230859,9.28858371 C1.05837921,9.39973206 1.20912873,9.46217456 1.36631623,9.46217456 L3.67874127,9.46217456 L7.4850067,11.1626614 C7.66833983,11.2446704 7.88075654,11.2280817 8.04913568,11.1186058 C8.21772163,11.0094592 8.31947291,10.822283 8.31939608,10.6214492 L8.31939608,3.57541805 C8.31939608,3.37453217 8.21760908,3.18732763 8.0490369,3.07806393 L8.0490369,3.07806393 Z M12.7443167,6.51637621 L10.2930078,6.51637621 C9.96568179,6.51637621 9.70033161,6.78172639 9.70033161,7.10905243 C9.70033161,7.43637846 9.96568179,7.70172864 10.2930078,7.70172864 L12.7443167,7.70172864 C13.0716427,7.70172864 13.3369929,7.43637846 13.3369929,7.10905243 C13.3369929,6.78172639 13.0716427,6.51637621 12.7443167,6.51637621 L12.7443167,6.51637621 Z M9.94402032,5.6446487 C10.0591987,5.64470152 10.1718697,5.61101354 10.2681154,5.54774571 L12.2919071,4.22173146 C12.4698191,4.10602335 12.5722829,3.90401779 12.5605465,3.69211386 C12.5488101,3.48020994 12.424665,3.29075522 12.2350634,3.19540203 C12.0454617,3.10004884 11.8193465,3.11335303 11.6422352,3.23028293 L9.61854229,4.5561984 C9.39922069,4.69986923 9.30036048,4.97057189 9.37547623,5.22177081 C9.45059198,5.47296973 9.68183113,5.64496311 9.94402032,5.6446487 L9.94402032,5.6446487 Z M12.2919071,9.99637339 L10.2681154,8.67045791 C9.9943072,8.49105598 9.62690777,8.5675874 9.44750583,8.84139562 C9.26810389,9.11520385 9.3446353,9.48260328 9.61844352,9.66200523 L11.6422352,10.9879207 C11.7736483,11.0742248 11.9339947,11.1047094 12.0879105,11.0726514 C12.2418263,11.0405933 12.376668,10.9486259 12.4626967,10.8170324 C12.5488882,10.685562 12.5793166,10.5252344 12.5472865,10.3713269 C12.5152564,10.2174195 12.4233922,10.0825425 12.2919071,9.99637339 L12.2919071,9.99637339 Z" id="形状" fill="#FE5F58"></path>
                    </g>
                </g>
            </g>
        </g>
    </g>
</svg>