<?xml version="1.0" encoding="UTF-8"?>
<svg width="20px" height="20px" viewBox="0 0 20 20" version="1.1" xmlns="http://www.w3.org/2000/svg" xmlns:xlink="http://www.w3.org/1999/xlink">
    <title>导入业主数据</title>
    <g id="导入业主数据" stroke="none" stroke-width="1" fill="none" fill-rule="evenodd">
        <path d="M16,2 C17.1045695,2 18,2.8954305 18,4 L18,16 C18,17.1045695 17.1045695,18 16,18 L4,18 C2.8954305,18 2,17.1045695 2,16 L2,12 L3.5,12 L3.5,16 C3.5,16.2454599 3.67687516,16.4496084 3.91012437,16.4919443 L4,16.5 L16,16.5 C16.2454599,16.5 16.4496084,16.3231248 16.4919443,16.0898756 L16.5,16 L16.5,4 C16.5,3.75454011 16.3231248,3.55039163 16.0898756,3.50805567 L16,3.5 L4,3.5 C3.75454011,3.5 3.55039163,3.67687516 3.50805567,3.91012437 L3.5,4 L3.5,8 L2,8 L2,4 C2,2.8954305 2.8954305,2 4,2 L16,2 Z M8.90729722,6 L13,10 L8.90729722,14 L8,12.9641873 L10,11 L2,11 L2,9 L10,9 L8,7.03581267 L8.90729722,6 Z" id="形状结合" fill="#ADADAD" fill-rule="nonzero"></path>
    </g>
</svg>