<?xml version="1.0" encoding="UTF-8"?>
<svg width="20px" height="20px" viewBox="0 0 20 20" version="1.1" xmlns="http://www.w3.org/2000/svg" xmlns:xlink="http://www.w3.org/1999/xlink">
    <title>下载业主模板</title>
    <g id="下载业主模板" stroke="none" stroke-width="1" fill="none" fill-rule="evenodd">
        <rect id="矩形" fill="#000000" fill-rule="nonzero" opacity="0" x="0" y="0" width="20" height="20"></rect>
        <path d="M15.7141333,2 C16.9765826,2 18,3.02341737 18,4.28586667 L18,15.7141333 C18,16.9765826 16.9765826,18 15.7141333,18 L4.28586667,18 C3.02341737,18 2,16.9765826 2,15.7141333 L2,4.28586667 C2,3.02341737 3.02341737,2 4.28586667,2 L15.7141333,2 Z M16.5,15 L3.5,15 L3.5,15.7141333 C3.5,16.111987 3.79564711,16.4407886 4.17922922,16.492826 L4.28586667,16.5 L15.7141333,16.5 C16.111987,16.5 16.4407886,16.2043529 16.492826,15.8207708 L16.5,15.7141333 L16.5,15 Z M15.7141333,3.5 L4.28586667,3.5 C3.88801301,3.5 3.55921143,3.79564711 3.50717404,4.17922922 L3.5,4.28586667 L3.5,14 L16.5,14 L16.5,4.28586667 C16.5,3.88801301 16.2043529,3.55921143 15.8207708,3.50717404 L15.7141333,3.5 Z M11.1429333,4.28586667 L11.1429333,10 L13.4288,10 L10,13.4288 L6.5712,10 L8.85706667,10 L8.85706667,4.28586667 L11.1429333,4.28586667 Z" id="形状结合" fill="#ADADAD" fill-rule="nonzero"></path>
    </g>
</svg>