<?xml version="1.0" encoding="UTF-8"?>
<svg width="18px" height="18px" viewBox="0 0 18 18" version="1.1" xmlns="http://www.w3.org/2000/svg" xmlns:xlink="http://www.w3.org/1999/xlink">
    <title>4列表操作@3x</title>
    <g id="A+max" stroke="none" stroke-width="1" fill="none" fill-rule="evenodd">
        <g id="A+MAX01-1房源列表" transform="translate(-1572.000000, -306.000000)" fill="#D8D8D8">
            <g id="编组" transform="translate(450.000000, 213.000000)">
                <g id="编组-13" transform="translate(0.000000, 42.000000)">
                    <g id="编组-14" transform="translate(20.000000, 50.000000)">
                        <g id="编组-16" transform="translate(96.000000, 1.000000)">
                            <g id="编组-22" transform="translate(928.000000, 0.000000)">
                                <path d="M91,0 C93.7614237,-5.07265313e-16 96,2.23857625 96,5 L96,13 C96,15.7614237 93.7614237,18 91,18 L83,18 C80.2385763,18 78,15.7614237 78,13 L78,5 C78,2.23857625 80.2385763,5.07265313e-16 83,0 L91,0 Z M92,7 C88.1932793,7.52512423 86.1932793,9.85845757 86,14 L86,14 L90,14 C91.1045695,14 92,13.1045695 92,12 L92,12 Z M85.9859638,10.2850885 C84.7874219,9.08885835 83.2001625,9.70066409 82,10.8941988 L82,10.8941988 L82,12 C82,13.1045695 82.8954305,14 84,14 L84,14 L85.0105086,14 C85.1093302,12.0969238 85.4344819,10.85862 85.9859638,10.2850885 Z M84.5,4 C83.6728854,4 83,4.67288537 83,5.5 C83,6.32711463 83.6728854,7 84.5,7 C85.3271007,7 86,6.32711463 86,5.5 C86,4.67288537 85.3271146,4 84.5,4 Z" id="4列表操作"></path>
                            </g>
                        </g>
                    </g>
                </g>
            </g>
        </g>
    </g>
</svg>