<?xml version="1.0" encoding="UTF-8"?>
<svg width="20px" height="20px" viewBox="0 0 20 20" version="1.1" xmlns="http://www.w3.org/2000/svg" xmlns:xlink="http://www.w3.org/1999/xlink">
    <title>新增房源</title>
    <g id="新增房源" stroke="none" stroke-width="1" fill="none" fill-rule="evenodd">
        <path d="M9.88809857,2.72974643 C10.1476167,2.72974643 10.4071348,2.81035723 10.6270831,2.97157883 L10.6270831,2.97157883 L17.0211756,7.65843378 C17.3424765,7.89394658 17.5322786,8.26850369 17.5321911,8.66687604 L17.5321911,8.66687604 L17.5320459,9.32770347 L10.9926366,9.82354702 L10.4357145,16.4721075 C10.443295,16.8282691 10.3019344,17.1514754 10.0696455,17.3837386 C9.8433843,17.6099747 9.53084825,17.7499308 9.18578325,17.75 L9.18578325,17.75 L3.49378325,17.75 C3.14860529,17.75 2.83610529,17.610089 2.60989978,17.3838835 C2.38369427,17.157678 2.24378325,16.845178 2.24378325,16.5 L2.24378325,16.5 L2.24378325,8.66676467 C2.24378325,8.26848908 2.43357592,7.89405265 2.75479875,7.65859707 L2.75479875,7.65859707 L9.14911407,2.97157883 C9.36906238,2.81035723 9.62858047,2.72974643 9.88809857,2.72974643 Z" id="路径" stroke="#DB5055" stroke-width="1.5"></path>
        <path d="M15.5925228,12.285424 C16.0791802,12.285424 16.473694,12.6799378 16.473694,13.1665952 L16.4730091,14.047424 L17.4012427,14.0477665 C17.8879001,14.0477665 18.2824139,14.4422803 18.2824139,14.9289377 C18.2824139,15.4155951 17.8879001,15.8101089 17.4012427,15.8101089 L16.4730091,15.809424 L16.473694,16.7376576 C16.473694,17.224315 16.0791802,17.6188288 15.5925228,17.6188288 C15.1058654,17.6188288 14.7113516,17.224315 14.7113516,16.7376576 L14.7110091,15.809424 L13.8301803,15.8101089 C13.3435229,15.8101089 12.9490091,15.4155951 12.9490091,14.9289377 C12.9490091,14.4422803 13.3435229,14.0477665 13.8301803,14.0477665 L14.7110091,14.047424 L14.7113516,13.1665952 C14.7113516,12.6799378 15.1058654,12.285424 15.5925228,12.285424 Z" id="形状结合" fill="#DB5055"></path>
    </g>
</svg>