<?xml version="1.0" encoding="UTF-8"?>
<svg width="20px" height="20px" viewBox="0 0 20 20" version="1.1" xmlns="http://www.w3.org/2000/svg" xmlns:xlink="http://www.w3.org/1999/xlink">
    <title>房源DM单</title>
    <g id="房源DM单" stroke="none" stroke-width="1" fill="none" fill-rule="evenodd">
        <path d="M16,2 C17.1045695,2 18,2.8954305 18,4 L18,16 C18,17.1045695 17.1045695,18 16,18 L4,18 C2.8954305,18 2,17.1045695 2,16 L2,4 C2,2.8954305 2.8954305,2 4,2 L16,2 Z M16,3.5 L4,3.5 C3.75454011,3.5 3.55039163,3.67687516 3.50805567,3.91012437 L3.5,4 L3.5,16 C3.5,16.2454599 3.67687516,16.4496084 3.91012437,16.4919443 L4,16.5 L16,16.5 C16.2454599,16.5 16.4496084,16.3231248 16.4919443,16.0898756 L16.5,16 L16.5,4 C16.5,3.75454011 16.3231248,3.55039163 16.0898756,3.50805567 L16,3.5 Z M14.5,13 C14.7761424,13 15,13.2238576 15,13.5 C15,13.7761424 14.7761424,14 14.5,14 L5.5,14 C5.22385763,14 5,13.7761424 5,13.5 C5,13.2238576 5.22385763,13 5.5,13 L14.5,13 Z M14.5,10 C14.7761424,10 15,10.2238576 15,10.5 C15,10.7761424 14.7761424,11 14.5,11 L5.5,11 C5.22385763,11 5,10.7761424 5,10.5 C5,10.2238576 5.22385763,10 5.5,10 L14.5,10 Z M6.5,6 C6.77614237,6 7,6.22385763 7,6.5 L7,7.5 C7,7.77614237 6.77614237,8 6.5,8 L5.5,8 C5.22385763,8 5,7.77614237 5,7.5 L5,6.5 C5,6.22385763 5.22385763,6 5.5,6 L6.5,6 Z" id="形状结合" fill="#ADADAD" fill-rule="nonzero"></path>
    </g>
</svg>