<?xml version="1.0" encoding="UTF-8"?>
<svg width="40px" height="18px" viewBox="0 0 40 18" version="1.1" xmlns="http://www.w3.org/2000/svg" xmlns:xlink="http://www.w3.org/1999/xlink">
    <title>租</title>
    <g id="A+max" stroke="none" stroke-width="1" fill="none" fill-rule="evenodd">
        <g id="A+MAX01-1房源列表" transform="translate(-506.000000, -383.000000)" fill="#4C9CE3">
            <g id="编组" transform="translate(450.000000, 213.000000)">
                <g id="编组-13" transform="translate(0.000000, 42.000000)">
                    <g id="编组-14" transform="translate(20.000000, 50.000000)">
                        <g id="编组-12" transform="translate(0.000000, 78.000000)">
                            <path d="M67,0 C71.9705627,-9.13077564e-16 76,4.02943725 76,9 C76,13.9705627 71.9705627,18 67,18 L45,18 C40.0294373,18 36,13.9705627 36,9 C36,4.02943725 40.0294373,9.13077564e-16 45,0 L67,0 Z M54.203125,4 C52.9010352,4.16406332 51.342891,4.29296828 49.5286458,4.38671875 C49.6154518,4.69140777 49.6805553,4.97656117 49.7239583,5.2421875 L49.7239583,5.2421875 L51.5208333,5.125 L51.5208333,6.9765625 L49.3984375,6.9765625 L49.3984375,7.80859375 L51.3645833,7.80859375 C50.8263862,9.39453918 50.1493096,10.7031198 49.3333333,11.734375 C49.4982647,12.0781267 49.6501729,12.4140609 49.7890625,12.7421875 C50.4835104,11.8593706 51.0607616,10.8437557 51.5208333,9.6953125 L51.5208333,9.6953125 L51.5208333,14.9335938 L52.484375,14.9335938 L52.484375,9.53125 C52.9184049,9.92968949 53.4175319,10.4531218 53.9817708,11.1015625 L53.9817708,11.1015625 L54.7239583,10.5273438 C54.124997,9.91015316 53.569447,9.37890848 53.0572917,8.93359375 L53.0572917,8.93359375 L52.484375,9.390625 L52.484375,7.80859375 L54.5416667,7.80859375 L54.5416667,6.9765625 L52.484375,6.9765625 L52.484375,5.0546875 C52.5959827,5.04575888 52.7049329,5.03698972 52.8112256,5.02838002 L52.8112256,5.02838002 L54.4375,4.890625 Z M61.15625,4.140625 L55.1927083,4.140625 L55.1927083,13.609375 L53.6302083,13.609375 L53.6302083,14.4414062 L62.2760417,14.4414062 L62.2760417,13.609375 L61.15625,13.609375 L61.15625,4.140625 Z M60.140625,11.2539062 L60.140625,13.609375 L56.2083333,13.609375 L56.2083333,11.2539062 L60.140625,11.2539062 Z M60.140625,8.11328125 L60.140625,10.4335938 L56.2083333,10.4335938 L56.2083333,8.11328125 L60.140625,8.11328125 Z M60.140625,4.97265625 L60.140625,7.29296875 L56.2083333,7.29296875 L56.2083333,4.97265625 L60.140625,4.97265625 Z" id="租"></path>
                        </g>
                    </g>
                </g>
            </g>
        </g>
    </g>
</svg>