<?xml version="1.0" encoding="UTF-8"?>
<svg width="40px" height="18px" viewBox="0 0 40 18" version="1.1" xmlns="http://www.w3.org/2000/svg" xmlns:xlink="http://www.w3.org/1999/xlink">
    <title>租售</title>
    <g id="A+max" stroke="none" stroke-width="1" fill="none" fill-rule="evenodd">
        <g id="A+MAX01-1房源列表" transform="translate(-506.000000, -305.000000)" fill="#91CE6B">
            <g id="编组" transform="translate(450.000000, 213.000000)">
                <g id="编组-13" transform="translate(0.000000, 42.000000)">
                    <g id="编组-2" transform="translate(20.000000, 50.000000)">
                        <path d="M67,0 C71.9705627,-9.13077564e-16 76,4.02943725 76,9 C76,13.9705627 71.9705627,18 67,18 L45,18 C40.0294373,18 36,13.9705627 36,9 C36,4.02943725 40.0294373,9.13077564e-16 45,0 L67,0 Z M47.5364583,3.76171875 C46.2343685,3.92578207 44.6762243,4.05468703 42.8619792,4.1484375 C42.9487852,4.45312652 43.0138887,4.73827992 43.0572917,5.00390625 L43.0572917,5.00390625 L44.8541667,4.88671875 L44.8541667,6.73828125 L42.7317708,6.73828125 L42.7317708,7.5703125 L44.6979167,7.5703125 C44.1597195,9.15625793 43.482643,10.4648386 42.6666667,11.4960938 C42.831598,11.8398455 42.9835063,12.1757796 43.1223958,12.5039062 C43.8168438,11.6210893 44.3940949,10.6054745 44.8541667,9.45703125 L44.8541667,9.45703125 L44.8541667,14.6953125 L45.8177083,14.6953125 L45.8177083,9.29296875 C46.2517383,9.69140824 46.7508652,10.2148405 47.3151042,10.8632812 L47.3151042,10.8632812 L48.0572917,10.2890625 C47.4583303,9.67187191 46.9027803,9.14062723 46.390625,8.6953125 L46.390625,8.6953125 L45.8177083,9.15234375 L45.8177083,7.5703125 L47.875,7.5703125 L47.875,6.73828125 L45.8177083,6.73828125 L45.8177083,4.81640625 C45.929316,4.80747763 46.0382662,4.79870847 46.1445589,4.79009877 L46.1445589,4.79009877 L47.7708333,4.65234375 Z M67.4713542,10.921875 L57.6276042,10.921875 L57.6276042,14.6953125 L58.5911458,14.6953125 L58.5911458,14.0976563 L66.5078125,14.0976563 L66.5078125,14.6953125 L67.4713542,14.6953125 L67.4713542,10.921875 Z M54.4895833,3.90234375 L48.5260417,3.90234375 L48.5260417,13.3710938 L46.9635417,13.3710938 L46.9635417,14.203125 L55.609375,14.203125 L55.609375,13.3710938 L54.4895833,13.3710938 L54.4895833,3.90234375 Z M53.4739583,11.015625 L53.4739583,13.3710938 L49.5416667,13.3710938 L49.5416667,11.015625 L53.4739583,11.015625 Z M66.5078125,11.671875 L66.5078125,13.3476562 L58.5911458,13.3476562 L58.5911458,11.671875 L66.5078125,11.671875 Z M63.109375,3 L62.2760417,3.4453125 C62.5798626,3.82031437 62.8532974,4.1874982 63.0963542,4.546875 L63.0963542,4.546875 L59.1380208,4.546875 C59.3897582,4.17968566 59.6371516,3.79297078 59.8802083,3.38671875 L59.8802083,3.38671875 L58.9427083,3.08203125 C58.2048574,4.48828828 57.1892426,5.73436957 55.8958333,6.8203125 C56.1302095,7.07031375 56.3342005,7.31640504 56.5078125,7.55859375 C56.8810783,7.22265457 57.2456579,6.86718938 57.6015625,6.4921875 L57.6015625,6.4921875 L57.6015625,10.4648438 L58.5651042,10.4648438 L58.5651042,10.0078125 L68.6692708,10.0078125 L68.6692708,9.28125 L63.7864583,9.28125 L63.7864583,8.4140625 L68.0052083,8.4140625 L68.0052083,7.6875 L63.7864583,7.6875 L63.7864583,6.84375 L68.0052083,6.84375 L68.0052083,6.1171875 L63.7864583,6.1171875 L63.7864583,5.2734375 L68.4088542,5.2734375 L68.4088542,4.546875 L63.6432292,4.546875 L64.1380208,4.27734375 C63.8341999,3.87109172 63.4913214,3.44531473 63.109375,3 L63.109375,3 Z M53.4739583,7.875 L53.4739583,10.1953125 L49.5416667,10.1953125 L49.5416667,7.875 L53.4739583,7.875 Z M62.8229167,8.4140625 L62.8229167,9.28125 L58.5651042,9.28125 L58.5651042,8.4140625 L62.8229167,8.4140625 Z M62.8229167,6.84375 L62.8229167,7.6875 L58.5651042,7.6875 L58.5651042,6.84375 L62.8229167,6.84375 Z M53.4739583,4.734375 L53.4739583,7.0546875 L49.5416667,7.0546875 L49.5416667,4.734375 L53.4739583,4.734375 Z M62.8229167,5.2734375 L62.8229167,6.1171875 L58.5651042,6.1171875 L58.5651042,5.34375 L58.6171875,5.2734375 L62.8229167,5.2734375 Z" id="租售"></path>
                    </g>
                </g>
            </g>
        </g>
    </g>
</svg>