<?xml version="1.0" encoding="UTF-8"?>
<svg width="40px" height="18px" viewBox="0 0 40 18" version="1.1" xmlns="http://www.w3.org/2000/svg" xmlns:xlink="http://www.w3.org/1999/xlink">
    <title>售</title>
    <g id="A+max" stroke="none" stroke-width="1" fill="none" fill-rule="evenodd">
        <g id="A+MAX01-1房源列表" transform="translate(-506.000000, -344.000000)" fill="#F36B6C">
            <g id="编组" transform="translate(450.000000, 213.000000)">
                <g id="编组-13" transform="translate(0.000000, 42.000000)">
                    <g id="编组-14" transform="translate(20.000000, 50.000000)">
                        <g id="编组-11" transform="translate(0.000000, 39.000000)">
                            <path d="M67,0 C71.9705627,-9.13077564e-16 76,4.02943725 76,9 C76,13.9705627 71.9705627,18 67,18 L45,18 C40.0294373,18 36,13.9705627 36,9 C36,4.02943725 40.0294373,9.13077564e-16 45,0 L67,0 Z M60.9088542,10.921875 L51.0651042,10.921875 L51.0651042,14.6953125 L52.0286458,14.6953125 L52.0286458,14.0976563 L59.9453125,14.0976563 L59.9453125,14.6953125 L60.9088542,14.6953125 L60.9088542,10.921875 Z M59.9453125,11.671875 L59.9453125,13.3476562 L52.0286458,13.3476562 L52.0286458,11.671875 L59.9453125,11.671875 Z M56.546875,3 L55.7135417,3.4453125 C56.0173626,3.82031437 56.2907974,4.1874982 56.5338542,4.546875 L56.5338542,4.546875 L52.5755208,4.546875 C52.8272582,4.17968566 53.0746516,3.79297078 53.3177083,3.38671875 L53.3177083,3.38671875 L52.3802083,3.08203125 C51.6423574,4.48828828 50.6267426,5.73436957 49.3333333,6.8203125 C49.5677095,7.07031375 49.7717005,7.31640504 49.9453125,7.55859375 C50.3185783,7.22265457 50.6831579,6.86718938 51.0390625,6.4921875 L51.0390625,6.4921875 L51.0390625,10.4648438 L52.0026042,10.4648438 L52.0026042,10.0078125 L62.1067708,10.0078125 L62.1067708,9.28125 L57.2239583,9.28125 L57.2239583,8.4140625 L61.4427083,8.4140625 L61.4427083,7.6875 L57.2239583,7.6875 L57.2239583,6.84375 L61.4427083,6.84375 L61.4427083,6.1171875 L57.2239583,6.1171875 L57.2239583,5.2734375 L61.8463542,5.2734375 L61.8463542,4.546875 L57.0807292,4.546875 L57.5755208,4.27734375 C57.2716999,3.87109172 56.9288214,3.44531473 56.546875,3 L56.546875,3 Z M56.2604167,8.4140625 L56.2604167,9.28125 L52.0026042,9.28125 L52.0026042,8.4140625 L56.2604167,8.4140625 Z M56.2604167,6.84375 L56.2604167,7.6875 L52.0026042,7.6875 L52.0026042,6.84375 L56.2604167,6.84375 Z M56.2604167,5.2734375 L56.2604167,6.1171875 L52.0026042,6.1171875 L52.0026042,5.34375 L52.0546875,5.2734375 L56.2604167,5.2734375 Z" id="售"></path>
                        </g>
                    </g>
                </g>
            </g>
        </g>
    </g>
</svg>