<?xml version="1.0" encoding="UTF-8"?>
<svg width="20px" height="20px" viewBox="0 0 20 20" version="1.1" xmlns="http://www.w3.org/2000/svg" xmlns:xlink="http://www.w3.org/1999/xlink">
    <title>搜索磐石</title>
    <g id="搜索磐石" stroke="none" stroke-width="1" fill="none" fill-rule="evenodd">
        <path d="M9,2 C10.1045695,2 11,2.8954305 11,4 L11,6 L16,6 C17.1045695,6 18,6.8954305 18,8 L18,13 C18,11.6018675 17.4261446,10.337766 16.5011206,9.43038252 L16.5,8 C16.5,7.75454011 16.3231248,7.55039163 16.0898756,7.50805567 L16,7.5 L9.5,7.5 L9.5,4 C9.5,3.75454011 9.32312484,3.55039163 9.08987563,3.50805567 L9,3.5 L4,3.5 C3.75454011,3.5 3.55039163,3.67687516 3.50805567,3.91012437 L3.5,4 L3.5,16 C3.5,16.2454599 3.67687516,16.4496084 3.91012437,16.4919443 L4,16.5 L9.43038252,16.5011206 C10.337766,17.4261446 11.6018675,18 13,18 L4,18 C2.8954305,18 2,17.1045695 2,16 L2,4 C2,2.8954305 2.8954305,2 4,2 L9,2 Z M13.0462741,9 C15.2821953,9 17.0925483,10.811899 17.0925483,13.0497296 C17.0925483,13.8599008 16.8549957,14.6126052 16.4463153,15.2458684 L16.4463153,15.2458684 L17.7151386,16.511268 C18.074282,16.8707181 18.0967989,17.4329928 17.7658015,17.7642728 C17.4336782,18.0955529 16.8718834,18.0730168 16.5116141,17.7135667 L16.5116141,17.7135667 L15.2450425,16.4504207 C14.6123196,16.8605769 13.85688,17.0994591 13.0462741,17.0994591 C10.810353,17.0994591 9,15.2875601 9,13.0497296 C9,10.8141526 10.810353,9 13.0462741,9 Z M13.0440225,10.3521635 C11.5534084,10.3521635 10.3465064,11.5623498 10.3465064,13.0519832 C10.3465064,14.5438702 11.5556601,15.7518029 13.0440225,15.7518029 C14.5323849,15.7518029 15.7392869,14.5438702 15.7415386,13.0519832 C15.7415386,11.5600962 14.5346365,10.3521635 13.0440225,10.3521635 Z" id="形状结合" fill="#ADADAD" fill-rule="nonzero"></path>
    </g>
</svg>