<?xml version="1.0" standalone="no"?><!DOCTYPE svg PUBLIC "-//W3C//DTD SVG 1.1//EN" "http://www.w3.org/Graphics/SVG/1.1/DTD/svg11.dtd"><svg class="icon" width="200px" height="200.00px" viewBox="0 0 1024 1024" version="1.1" xmlns="http://www.w3.org/2000/svg"><path d="M914.285714 0A109.714286 109.714286 0 0 1 1024 109.714286v804.571428a109.714286 109.714286 0 0 1-109.714286 109.714286h-804.571428A109.714286 109.714286 0 0 1 0 914.285714v-804.571428A109.714286 109.714286 0 0 1 109.714286 0h804.571428zM700.562286 270.482286H597.357714a42.642286 42.642286 0 1 0 0 85.357714h106.642286a156.16 156.16 0 0 1 0 312.32h-30.72l21.357714-21.357714a42.861714 42.861714 0 1 0-60.635428-60.562286L543.597714 682.642286a43.52 43.52 0 0 0 0 60.635428 34.157714 34.157714 0 0 0 18.724572 10.24 38.4 38.4 0 0 0 17.115428 0h124.562286a241.517714 241.517714 0 1 0-3.437714-483.035428z m-254.244572 2.56H306.322286a238.957714 238.957714 0 0 0 0 477.915428h120.32a42.642286 42.642286 0 1 0 0-85.357714H306.322286a153.6 153.6 0 1 1 0-307.2h48.64l-23.844572 23.917714a41.837714 41.837714 0 0 0 29.842286 72.484572 44.397714 44.397714 0 0 0 29.842286-11.922286l91.355428-91.282286a40.96 40.96 0 0 0-1.755428-61.44 41.984 41.984 0 0 0-34.084572-17.115428z" /></svg>