<?xml version="1.0" encoding="UTF-8"?>
<svg width="16px" height="18px" viewBox="0 0 16 18" version="1.1" xmlns="http://www.w3.org/2000/svg" xmlns:xlink="http://www.w3.org/1999/xlink">
    <!-- Generator: Sketch 59.1 (86144) - https://sketch.com -->
    <title>系统设置@2x</title>
    <desc>Created with Sketch.</desc>
    <defs>
        <linearGradient x1="50%" y1="0%" x2="50%" y2="100%" id="linearGradient-1">
            <stop stop-color="#6F9FFF" offset="0%"></stop>
            <stop stop-color="#3D7EFF" offset="100%"></stop>
        </linearGradient>
    </defs>
    <g id="蓝色" stroke="none" stroke-width="1" fill="none" fill-rule="evenodd">
        <g id="CCHR-左导-HR管理平台-架构备份" transform="translate(-22.000000, -471.000000)">
            <g id="左导">
                <g id="系统设置" transform="translate(21.000000, 471.000000)">
                    <g id="系统管理">
                        <rect id="矩形" fill="#D8D8D8" opacity="0" x="0" y="0.307283433" width="18" height="17.5909091"></rect>
                        <g id="设置" transform="translate(1.000000, 0.213849)">
                            <path d="M16,12.4213333 L16,5.57533333 C15.9956119,4.91867909 15.6360427,4.31586823 15.0603333,4 L8.93966667,0.577 C8.35546324,0.251659248 7.64453676,0.251659248 7.06033333,0.577 L0.939666667,4 C0.363957265,4.31586823 0.0043881113,4.91867909 0,5.57533333 L0,12.4213333 C0.00404765678,13.0784266 0.363644343,13.6817939 0.939666667,13.998 L7.06033333,17.421 C7.64463671,17.7459556 8.35536329,17.7459556 8.93966667,17.421 L15.0603333,13.998 C15.6363557,13.6817939 15.9959523,13.0784266 16,12.4213333 L16,12.4213333 Z" id="形状_4" fill="url(#linearGradient-1)"></path>
                            <circle id="椭圆_9" fill="#FFFFFF" fill-rule="nonzero" opacity="0.699999988" cx="8" cy="9" r="2.66666667"></circle>
                        </g>
                    </g>
                </g>
            </g>
        </g>
    </g>
</svg>