<?xml version="1.0" encoding="UTF-8"?>
<svg width="32px" height="32px" viewBox="0 0 32 32" version="1.1" xmlns="http://www.w3.org/2000/svg" xmlns:xlink="http://www.w3.org/1999/xlink">
    <!-- Generator: Sketch 59.1 (86144) - https://sketch.com -->
    <title>加号</title>
    <desc>Created with Sketch.</desc>
    <g id="页面-1" stroke="none" stroke-width="1" fill="none" fill-rule="evenodd">
        <g id="加号">
            <rect id="矩形" fill="#000000" fill-rule="nonzero" opacity="0" x="0" y="0" width="32" height="32"></rect>
            <path d="M15.94432,-3.55271368e-14 C24.73504,-3.55271368e-14 31.88672,7.15968 31.88672,15.95552 C31.88672,24.752 24.73504,31.9088 15.94432,31.9088 C7.15328,31.9088 2.13162821e-13,24.752 2.13162821e-13,15.95552 C2.13162821e-13,7.15968 7.15328,-3.55271368e-14 15.94432,-3.55271368e-14 Z M16,9 C15.4477153,9 15,9.44771525 15,10 L15,10 L15,15 L10,15 C9.48716416,15 9.06449284,15.3860402 9.00672773,15.8833789 L9,16 C9,16.5522847 9.44771525,17 10,17 L10,17 L14.999,17 L15,22 C15,22.5128358 15.3860402,22.9355072 15.8833789,22.9932723 L16,23 C16.5522847,23 17,22.5522847 17,22 L17,22 L16.999,17 L22,17 C22.5128358,17 22.9355072,16.6139598 22.9932723,16.1166211 L23,16 C23,15.4477153 22.5522847,15 22,15 L22,15 L17,15 L17,10 C17,9.48716416 16.6139598,9.06449284 16.1166211,9.00672773 Z" id="形状结合" fill="#3D7EFF" fill-rule="nonzero"></path>
            <g id="编组-2" transform="translate(9.000000, 9.000000)"></g>
        </g>
    </g>
</svg>