<?xml version="1.0" encoding="UTF-8"?>
<svg width="32px" height="32px" viewBox="0 0 32 32" version="1.1" xmlns="http://www.w3.org/2000/svg" xmlns:xlink="http://www.w3.org/1999/xlink">
    <!-- Generator: Sketch 59.1 (86144) - https://sketch.com -->
    <title>减去</title>
    <desc>Created with Sketch.</desc>
    <g id="页面-1" stroke="none" stroke-width="1" fill="none" fill-rule="evenodd">
        <g id="减去" fill-rule="nonzero">
            <rect id="矩形" fill="#000000" opacity="0" x="0" y="0" width="32" height="32"></rect>
            <path d="M15.94432,-3.55271368e-14 C24.73504,-3.55271368e-14 31.88672,7.15968 31.88672,15.95552 C31.88672,24.752 24.73504,31.9088 15.94432,31.9088 C7.15328,31.9088 2.13162821e-13,24.752 2.13162821e-13,15.95552 C2.13162821e-13,7.15968 7.15328,-3.55271368e-14 15.94432,-3.55271368e-14 Z M22,15 L10,15 C9.44771525,15 9,15.4477153 9,16 C9,16.5522847 9.44771525,17 10,17 L10,17 L22,17 C22.5522847,17 23,16.5522847 23,16 C23,15.4477153 22.5522847,15 22,15 L22,15 Z" id="形状结合" fill="#3D7EFF"></path>
        </g>
    </g>
</svg>