<?xml version="1.0" encoding="UTF-8"?>
<svg width="18px" height="18px" viewBox="0 0 18 18" version="1.1" xmlns="http://www.w3.org/2000/svg" xmlns:xlink="http://www.w3.org/1999/xlink">
    <title>2列表操作@3x</title>
    <g id="A+max" stroke="none" stroke-width="1" fill="none" fill-rule="evenodd">
        <g id="A+MAX01-1房源列表" transform="translate(-1520.000000, -306.000000)" fill="#D8D8D8">
            <g id="编组" transform="translate(450.000000, 213.000000)">
                <g id="编组-13" transform="translate(0.000000, 42.000000)">
                    <g id="编组-14" transform="translate(20.000000, 50.000000)">
                        <g id="编组-16" transform="translate(96.000000, 1.000000)">
                            <g id="编组-22" transform="translate(928.000000, 0.000000)">
                                <path d="M39,0 C41.7614237,-5.07265313e-16 44,2.23857625 44,5 L44,13 C44,15.7614237 41.7614237,18 39,18 L31,18 C28.2385763,18 26,15.7614237 26,13 L26,5 C26,2.23857625 28.2385763,5.07265313e-16 31,0 L39,0 Z M37.0488622,8 L32.9661316,8 C32.6575225,7.99951024 32.3697518,8.1346951 32.202108,8.3589138 L32.202108,8.3589138 L30.1622861,11.0762291 C30.0664557,11.2035773 30.0153678,11.3522454 30.0152143,11.5042143 L30.0152143,11.5042143 L30,13.211576 C30.0006075,13.6467926 30.4081632,13.9994743 30.9110954,14 L30.9110954,14 L39.0739107,14 C39.576428,13.9996855 39.9839125,13.6475774 39.9850061,13.2127208 L39.9850061,13.2127208 L40,11.50555 C40,11.3530204 39.9489526,11.2037552 39.8529282,11.0758474 L39.8529282,11.0758474 L37.8131063,8.3589138 C37.6453914,8.13466487 37.3575392,7.99948071 37.0488622,8 L37.0488622,8 Z M35.0000828,9 C36.10462,9.00004574 37,9.89546283 37,11 C36.9987673,12.1041555 36.1039072,12.9989045 34.9997515,13 C33.8952144,12.9998628 32.9999085,12.1043715 33,10.9998344 C33.0000915,9.89529721 33.8955457,8.99995426 35.0000828,9 Z M39.117439,4.87197755 C36.5412413,3.70710844 33.4506559,3.70947655 30.8769384,4.8782917 C30.3775273,5.10670576 30.0491856,5.53508052 30.0054412,6.01530066 L30.0054412,6.01530066 L30,6.01530066 L30,6.36227088 C30.0004997,6.71430305 30.3364707,6.99957571 30.7510656,7 L30.7510656,7 L31.7224993,7 C32.1370234,6.99949089 32.472884,6.71424302 32.4733835,6.36227088 L32.4733835,6.36227088 L32.4733835,6.10416076 C34.0106697,5.25746589 35.9909449,5.25867287 37.5267979,6.10724083 L37.5267979,6.10724083 L37.5267979,6.36227088 C37.5272976,6.71430305 37.8632685,6.99957571 38.2778634,7 L38.2778634,7 L39.2492972,7 C39.6637504,6.9994061 39.9995008,6.71418301 40,6.36227088 L40,6.36227088 L40,6.01530066 C39.9506672,5.53225185 39.6199467,5.10160389 39.117439,4.87197755 Z" id="2列表操作"></path>
                            </g>
                        </g>
                    </g>
                </g>
            </g>
        </g>
    </g>
</svg>