<?xml version="1.0" encoding="UTF-8"?>
<svg width="54px" height="54px" viewBox="0 0 54 54" version="1.1" xmlns="http://www.w3.org/2000/svg" xmlns:xlink="http://www.w3.org/1999/xlink">
    <!-- Generator: Sketch 59.1 (86144) - https://sketch.com -->
    <title>兼职@2x</title>
    <desc>Created with Sketch.</desc>
    <defs>
        <filter x="-38.7%" y="-40.0%" width="177.4%" height="180.0%" filterUnits="objectBoundingBox" id="filter-1">
            <feOffset dx="0" dy="2" in="SourceAlpha" result="shadowOffsetOuter1"></feOffset>
            <feGaussianBlur stdDeviation="2" in="shadowOffsetOuter1" result="shadowBlurOuter1"></feGaussianBlur>
            <feColorMatrix values="0 0 0 0 0.925668025   0 0 0 0 0.437765243   0 0 0 0 0.32982215  0 0 0 1 0" type="matrix" in="shadowBlurOuter1" result="shadowMatrixOuter1"></feColorMatrix>
            <feMerge>
                <feMergeNode in="shadowMatrixOuter1"></feMergeNode>
                <feMergeNode in="SourceGraphic"></feMergeNode>
            </feMerge>
        </filter>
        <linearGradient x1="50%" y1="0%" x2="50%" y2="97.796136%" id="linearGradient-2">
            <stop stop-color="#FFFFFF" offset="0%"></stop>
            <stop stop-color="#FFCFC4" offset="100%"></stop>
        </linearGradient>
    </defs>
    <g id="蓝色" stroke="none" stroke-width="1" fill="none" fill-rule="evenodd">
        <g id="CCHR-左导-HR管理平台-人事架构事务" transform="translate(-917.000000, -207.000000)">
            <g id="1" transform="translate(70.000000, 189.000000)">
                <g id="1备份-4" transform="translate(832.000000, 0.000000)">
                    <g id="兼职" transform="translate(15.000000, 18.000000)">
                        <circle id="椭圆形" fill="#FF7252" opacity="0.800000012" cx="27" cy="27" r="27"></circle>
                        <g id="入职" filter="url(#filter-1)" transform="translate(12.000000, 13.000000)">
                            <path d="M22.4728885,13.6322433 C23.5119738,13.6322433 24.4712253,13.8306003 25.3830756,14.2210369 C26.2681988,14.5991048 27.0727142,15.1432112 27.753138,15.8239475 C28.4337779,16.5124268 28.9795556,17.3222085 29.3622856,18.2114735 L29.3610382,18.2114735 C29.7527222,19.1233238 29.9498116,20.087565 29.9498116,21.1179184 C29.9498116,22.1507666 29.755217,23.1100182 29.3610382,24.0218685 C28.9820161,24.9128494 28.4362669,25.723217 27.753138,26.4093945 C26.354592,27.8131397 24.4544109,28.6018518 22.4728885,28.6011764 C21.4678973,28.6062577 20.4724595,28.4058967 19.5477326,28.0123051 C18.6626094,27.6342372 17.858094,27.0901308 17.1776702,26.4093945 C16.4970303,25.7209152 15.9512527,24.9111335 15.5685226,24.0218685 C15.174528,23.1043174 14.9744991,22.1152147 14.9809966,21.116671 C14.9809966,20.0838227 15.1755912,19.1233238 15.56977,18.2114735 C15.9502921,17.3213079 16.4958607,16.5112084 17.1776702,15.8239475 C18.5799535,14.4166363 20.4862074,13.6276403 22.4728885,13.6322433 Z M7.77226482,16.537461 C9.15189061,17.7324714 10.7984603,18.4671907 12.5747596,18.5682302 C12.3615367,19.4008182 12.2554819,20.2572217 12.2591671,21.116671 C12.2591671,22.5262344 12.5286058,23.8409953 13.0612461,25.0784174 C13.3912487,25.8459865 13.8112374,26.57165 14.3123895,27.2401637 L1.25958291,27.2401637 C0.928751525,27.2401637 0.611470132,27.1087415 0.377537015,26.8748084 C0.143603898,26.6408753 0.0121816406,26.3235939 0.0121816406,25.9927625 L0.0121816406,21.9985837 C0.0123259094,21.564986 0.237622558,21.1625694 0.60719205,20.9357978 L7.77226482,16.537461 Z M13.0013708,0.0243633129 C16.9568802,0.0243633129 19.8059446,3.06552754 19.8059446,7.26552754 C19.8148868,8.73784594 19.5113203,10.195305 18.9153002,11.541619 C17.5388633,12.0536151 16.2897977,12.8579538 15.2541775,13.8992074 C14.6106268,14.5438724 14.056796,15.2722438 13.6076078,16.0646959 C13.4067227,16.0925483 13.2041772,16.1067181 13.0013708,16.1071076 C9.77309639,16.1071076 6.19804444,12.502118 6.19804444,7.26552754 C6.19804444,3.06552754 9.04586149,0.0243633129 13.0013708,0.0243633129 Z" id="形状结合" fill="url(#linearGradient-2)" fill-rule="nonzero"></path>
                            <g id="编组-9" transform="translate(22.465327, 21.287957) rotate(-315.000000) translate(-22.465327, -21.287957) translate(16.965327, 15.787957)" fill="#FF8E75">
                                <rect id="矩形备份" transform="translate(4.417353, 2.233723) scale(-1, 1) rotate(-270.000000) translate(-4.417353, -2.233723) " x="2.51362442" y="1.23372257" width="3.80745784" height="2" rx="1"></rect>
                                <rect id="矩形备份-11" transform="translate(2.417353, 4.233723) scale(-1, 1) rotate(-180.000000) translate(-2.417353, -4.233723) " x="0.513624424" y="3.23372257" width="3.80745784" height="2" rx="1"></rect>
                                <rect id="矩形备份-2" transform="translate(4.812741, 4.742064) scale(-1, 1) rotate(-315.000000) translate(-4.812741, -4.742064) " x="0.996930808" y="3.7420642" width="7.63161966" height="2" rx="1"></rect>
                                <rect id="矩形备份-9" transform="translate(6.916773, 6.846097) scale(-1, 1) rotate(-315.000000) translate(-6.916773, -6.846097) " x="3.10096337" y="5.84609676" width="7.63161966" height="2" rx="1"></rect>
                                <rect id="矩形备份-10" transform="translate(6.916773, 6.733142) scale(-1, 1) rotate(-45.000000) translate(-6.916773, -6.733142) " x="3.10096337" y="5.73314242" width="7.63161966" height="2" rx="1"></rect>
                            </g>
                        </g>
                    </g>
                </g>
            </g>
        </g>
    </g>
</svg>