<?xml version="1.0" encoding="UTF-8"?>
<svg width="18px" height="18px" viewBox="0 0 18 18" version="1.1" xmlns="http://www.w3.org/2000/svg" xmlns:xlink="http://www.w3.org/1999/xlink">
    <!-- Generator: Sketch 59.1 (86144) - https://sketch.com -->
    <title>用户@2x</title>
    <desc>Created with Sketch.</desc>
    <g id="蓝色" stroke="none" stroke-width="1" fill="none" fill-rule="evenodd">
        <g id="CCHR登录" transform="translate(-1197.000000, -395.000000)" fill-rule="nonzero">
            <g id="登录" transform="translate(1162.000000, 187.000000)">
                <g id="账户" transform="translate(35.000000, 196.000000)">
                    <g id="用户" transform="translate(0.000000, 12.000000)">
                        <rect id="矩形" fill="#000000" opacity="0" x="0" y="0" width="18" height="18"></rect>
                        <path d="M4.50005288,5.99992951 C4.50005288,3.51820867 6.51812917,1.49998238 8.99985001,1.49998238 C11.4815708,1.49998238 13.4997971,3.51820867 13.4997971,5.99992951 C13.4997971,8.48150035 11.4815708,10.4998766 8.99985001,10.4998766 C6.51812917,10.4998766 4.49990288,8.48150035 4.49990288,5.99992951 M17.2242534,17.0568996 C16.486862,14.294682 14.5428849,12.1347074 12.1018136,11.1259693 C13.8348932,10.0729817 14.9997795,8.17250398 14.9997795,5.99977949 C14.9996295,2.69171837 12.3079111,0 8.99970001,0 C5.69148889,0 2.99977051,2.69171837 2.99977051,5.99992951 C2.99977051,8.17250398 4.16450682,10.0729817 5.89848645,11.1259693 C3.45726513,12.1354574 1.51328797,14.2946821 0.775446645,17.0568996 C0.669039989,17.4567486 0.906692515,17.8672027 1.3064404,17.9739888 C1.70669348,18.0807316 2.11776698,17.8431091 2.22502961,17.442995 C3.08106954,14.2384327 5.86653681,11.999859 9,11.999859 C12.1334632,11.999859 14.9195304,14.2385827 15.7754204,17.443295 C15.8264098,17.6356476 15.9518974,17.7997778 16.1241523,17.8994155 C16.2964073,17.9990532 16.5012486,18.0259955 16.6934096,17.9742888 C17.0932322,17.8675048 17.3309058,17.4569473 17.2244034,17.0570496" id="形状" fill="#7C8390"></path>
                    </g>
                </g>
            </g>
        </g>
    </g>
</svg>